G75*
G70*
%OFA0B0*%
%FSLAX24Y24*%
%IPPOS*%
%LPD*%
%AMOC8*
5,1,8,0,0,1.08239X$1,22.5*
%
%ADD10C,0.0000*%
%ADD11C,0.0740*%
%ADD12C,0.0600*%
%ADD13C,0.0520*%
%ADD14OC8,0.0520*%
%ADD15R,0.0740X0.0740*%
%ADD16R,0.0650X0.0650*%
%ADD17C,0.0650*%
%ADD18C,0.0160*%
%ADD19R,0.0356X0.0356*%
D10*
X006002Y000100D02*
X006002Y021470D01*
X029994Y021470D01*
X029994Y000100D01*
X006002Y000100D01*
X028102Y003350D02*
X028104Y003400D01*
X028110Y003450D01*
X028120Y003500D01*
X028133Y003548D01*
X028150Y003596D01*
X028171Y003642D01*
X028195Y003686D01*
X028223Y003728D01*
X028254Y003768D01*
X028288Y003805D01*
X028325Y003840D01*
X028364Y003871D01*
X028405Y003900D01*
X028449Y003925D01*
X028495Y003947D01*
X028542Y003965D01*
X028590Y003979D01*
X028639Y003990D01*
X028689Y003997D01*
X028739Y004000D01*
X028790Y003999D01*
X028840Y003994D01*
X028890Y003985D01*
X028938Y003973D01*
X028986Y003956D01*
X029032Y003936D01*
X029077Y003913D01*
X029120Y003886D01*
X029160Y003856D01*
X029198Y003823D01*
X029233Y003787D01*
X029266Y003748D01*
X029295Y003707D01*
X029321Y003664D01*
X029344Y003619D01*
X029363Y003572D01*
X029378Y003524D01*
X029390Y003475D01*
X029398Y003425D01*
X029402Y003375D01*
X029402Y003325D01*
X029398Y003275D01*
X029390Y003225D01*
X029378Y003176D01*
X029363Y003128D01*
X029344Y003081D01*
X029321Y003036D01*
X029295Y002993D01*
X029266Y002952D01*
X029233Y002913D01*
X029198Y002877D01*
X029160Y002844D01*
X029120Y002814D01*
X029077Y002787D01*
X029032Y002764D01*
X028986Y002744D01*
X028938Y002727D01*
X028890Y002715D01*
X028840Y002706D01*
X028790Y002701D01*
X028739Y002700D01*
X028689Y002703D01*
X028639Y002710D01*
X028590Y002721D01*
X028542Y002735D01*
X028495Y002753D01*
X028449Y002775D01*
X028405Y002800D01*
X028364Y002829D01*
X028325Y002860D01*
X028288Y002895D01*
X028254Y002932D01*
X028223Y002972D01*
X028195Y003014D01*
X028171Y003058D01*
X028150Y003104D01*
X028133Y003152D01*
X028120Y003200D01*
X028110Y003250D01*
X028104Y003300D01*
X028102Y003350D01*
X008102Y020350D02*
X008104Y020400D01*
X008110Y020450D01*
X008120Y020500D01*
X008133Y020548D01*
X008150Y020596D01*
X008171Y020642D01*
X008195Y020686D01*
X008223Y020728D01*
X008254Y020768D01*
X008288Y020805D01*
X008325Y020840D01*
X008364Y020871D01*
X008405Y020900D01*
X008449Y020925D01*
X008495Y020947D01*
X008542Y020965D01*
X008590Y020979D01*
X008639Y020990D01*
X008689Y020997D01*
X008739Y021000D01*
X008790Y020999D01*
X008840Y020994D01*
X008890Y020985D01*
X008938Y020973D01*
X008986Y020956D01*
X009032Y020936D01*
X009077Y020913D01*
X009120Y020886D01*
X009160Y020856D01*
X009198Y020823D01*
X009233Y020787D01*
X009266Y020748D01*
X009295Y020707D01*
X009321Y020664D01*
X009344Y020619D01*
X009363Y020572D01*
X009378Y020524D01*
X009390Y020475D01*
X009398Y020425D01*
X009402Y020375D01*
X009402Y020325D01*
X009398Y020275D01*
X009390Y020225D01*
X009378Y020176D01*
X009363Y020128D01*
X009344Y020081D01*
X009321Y020036D01*
X009295Y019993D01*
X009266Y019952D01*
X009233Y019913D01*
X009198Y019877D01*
X009160Y019844D01*
X009120Y019814D01*
X009077Y019787D01*
X009032Y019764D01*
X008986Y019744D01*
X008938Y019727D01*
X008890Y019715D01*
X008840Y019706D01*
X008790Y019701D01*
X008739Y019700D01*
X008689Y019703D01*
X008639Y019710D01*
X008590Y019721D01*
X008542Y019735D01*
X008495Y019753D01*
X008449Y019775D01*
X008405Y019800D01*
X008364Y019829D01*
X008325Y019860D01*
X008288Y019895D01*
X008254Y019932D01*
X008223Y019972D01*
X008195Y020014D01*
X008171Y020058D01*
X008150Y020104D01*
X008133Y020152D01*
X008120Y020200D01*
X008110Y020250D01*
X008104Y020300D01*
X008102Y020350D01*
D11*
X012252Y020350D03*
X013252Y020350D03*
X014252Y020350D03*
X015252Y020350D03*
X016252Y020350D03*
X017252Y020350D03*
X018252Y020350D03*
X019252Y020350D03*
X020752Y020350D03*
X021752Y020350D03*
X022752Y020350D03*
X023752Y020350D03*
X024752Y020350D03*
X025752Y020350D03*
X026752Y020350D03*
X027752Y020350D03*
X021252Y014350D03*
X021252Y013350D03*
X021252Y012350D03*
X017252Y013350D03*
X016252Y013350D03*
X015252Y013350D03*
X011752Y013350D03*
X010752Y013350D03*
X008252Y014600D03*
X008252Y015600D03*
X010752Y016350D03*
X011752Y016350D03*
X015252Y016350D03*
X016252Y016350D03*
X017252Y016350D03*
X017252Y008850D03*
X015752Y008850D03*
X015752Y007850D03*
X015472Y006240D03*
X014032Y006240D03*
X012752Y007850D03*
X012752Y008850D03*
X011252Y008850D03*
X011252Y007850D03*
X011472Y006240D03*
X010032Y006240D03*
X008252Y007850D03*
X008252Y008850D03*
X007472Y006240D03*
X007472Y004460D03*
X007472Y003240D03*
X007472Y001460D03*
X010032Y001460D03*
X011472Y001460D03*
X011472Y003240D03*
X010032Y003240D03*
X010032Y004460D03*
X011472Y004460D03*
X014032Y004460D03*
X015472Y004460D03*
X014032Y003240D03*
X014032Y001460D03*
X015752Y001350D03*
X016752Y001350D03*
X017752Y001350D03*
X018752Y001350D03*
X019752Y001350D03*
X020752Y001350D03*
X022752Y001350D03*
X023752Y001350D03*
X024752Y001350D03*
X025752Y001350D03*
X026752Y001350D03*
X027752Y001350D03*
X023252Y003850D03*
X023252Y004850D03*
X023252Y005850D03*
X021532Y006240D03*
X021532Y004460D03*
X018972Y004460D03*
X018032Y004460D03*
X018032Y006240D03*
X018972Y006240D03*
X020252Y008850D03*
X027252Y005850D03*
X028252Y005850D03*
D12*
X022752Y017550D02*
X022752Y018150D01*
X021752Y018150D02*
X021752Y017550D01*
X020752Y017550D02*
X020752Y018150D01*
X019752Y018150D02*
X019752Y017550D01*
X018752Y017550D02*
X018752Y018150D01*
X017752Y018150D02*
X017752Y017550D01*
X016752Y017550D02*
X016752Y018150D01*
X015752Y018150D02*
X015752Y017550D01*
X014752Y017550D02*
X014752Y018150D01*
X013752Y018150D02*
X013752Y017550D01*
X012752Y017550D02*
X012752Y018150D01*
X011752Y018150D02*
X011752Y017550D01*
X010752Y017550D02*
X010752Y018150D01*
X009752Y018150D02*
X009752Y017550D01*
X008752Y017550D02*
X008752Y018150D01*
X007752Y018150D02*
X007752Y017550D01*
D13*
X024992Y015350D02*
X025512Y015350D01*
X025512Y014350D02*
X024992Y014350D01*
X024992Y013350D02*
X025512Y013350D01*
X025512Y012350D02*
X024992Y012350D01*
X024992Y011350D02*
X025512Y011350D01*
X025512Y010350D02*
X024992Y010350D01*
X024992Y009350D02*
X025512Y009350D01*
X025512Y008350D02*
X024992Y008350D01*
X027992Y008350D02*
X028512Y008350D01*
X028512Y009350D02*
X027992Y009350D01*
X027992Y010350D02*
X028512Y010350D01*
X028512Y011350D02*
X027992Y011350D01*
X027992Y012350D02*
X028512Y012350D01*
X028512Y013350D02*
X027992Y013350D01*
X027992Y014350D02*
X028512Y014350D01*
X028512Y015350D02*
X027992Y015350D01*
D14*
X019252Y011850D03*
X019252Y010850D03*
X016252Y010850D03*
X016252Y011850D03*
X013252Y011850D03*
X013252Y010850D03*
X010252Y010850D03*
X010252Y011850D03*
D15*
X008252Y013600D03*
X026252Y005850D03*
D16*
X023252Y008850D03*
X023252Y012350D03*
X023252Y014850D03*
X026252Y017350D03*
D17*
X027252Y017350D03*
X023252Y013850D03*
X023252Y011350D03*
X023252Y009850D03*
D18*
X023252Y010100D01*
X023502Y010350D01*
X025252Y010350D01*
X024913Y010750D02*
X024766Y010689D01*
X024653Y010577D01*
X024651Y010570D01*
X023411Y010570D01*
X023282Y010441D01*
X023154Y010312D01*
X022989Y010244D01*
X022858Y010113D01*
X022787Y009942D01*
X022787Y009758D01*
X022858Y009587D01*
X022989Y009456D01*
X023160Y009385D01*
X023345Y009385D01*
X023516Y009456D01*
X023647Y009587D01*
X023717Y009758D01*
X023717Y009942D01*
X023647Y010113D01*
X023630Y010130D01*
X024651Y010130D01*
X024653Y010123D01*
X024766Y010011D01*
X024913Y009950D01*
X025592Y009950D01*
X025739Y010011D01*
X025851Y010123D01*
X025912Y010270D01*
X025912Y010430D01*
X025851Y010577D01*
X025739Y010689D01*
X025592Y010750D01*
X024913Y010750D01*
X024762Y010686D02*
X019692Y010686D01*
X019692Y010668D02*
X019692Y010850D01*
X019692Y011032D01*
X019435Y011290D01*
X019252Y011290D01*
X019070Y011290D01*
X018812Y011032D01*
X018812Y010850D01*
X018812Y010668D01*
X019070Y010410D01*
X019252Y010410D01*
X019252Y010850D01*
X018812Y010850D01*
X019252Y010850D01*
X019252Y010850D01*
X019252Y011290D01*
X019252Y010850D01*
X019252Y010850D01*
X019252Y010850D01*
X019252Y010410D01*
X019435Y010410D01*
X019692Y010668D01*
X019692Y010844D02*
X026532Y010844D01*
X026532Y010686D02*
X025743Y010686D01*
X025872Y010527D02*
X026532Y010527D01*
X026532Y010369D02*
X025912Y010369D01*
X025887Y010210D02*
X026532Y010210D01*
X026532Y010052D02*
X025780Y010052D01*
X025629Y009735D02*
X026532Y009735D01*
X026532Y009893D02*
X023717Y009893D01*
X023708Y009735D02*
X024875Y009735D01*
X024913Y009750D02*
X024766Y009689D01*
X024653Y009577D01*
X024592Y009430D01*
X024592Y009270D01*
X024653Y009123D01*
X024766Y009011D01*
X024913Y008950D01*
X025592Y008950D01*
X025739Y009011D01*
X025851Y009123D01*
X025912Y009270D01*
X025912Y009430D01*
X025851Y009577D01*
X025739Y009689D01*
X025592Y009750D01*
X024913Y009750D01*
X024653Y009576D02*
X023636Y009576D01*
X023601Y009355D02*
X023252Y009355D01*
X022904Y009355D01*
X022858Y009343D01*
X022817Y009319D01*
X022783Y009286D01*
X022760Y009244D01*
X022747Y009199D01*
X022747Y008850D01*
X022747Y008501D01*
X022760Y008456D01*
X022783Y008414D01*
X022817Y008381D01*
X022858Y008357D01*
X022904Y008345D01*
X023252Y008345D01*
X023252Y008850D01*
X022747Y008850D01*
X023252Y008850D01*
X023252Y008850D01*
X023252Y008850D01*
X023252Y009355D01*
X023252Y008850D01*
X023252Y008850D01*
X023252Y008345D01*
X023601Y008345D01*
X023647Y008357D01*
X023688Y008381D01*
X023721Y008414D01*
X023745Y008456D01*
X023757Y008501D01*
X023757Y008850D01*
X023757Y009199D01*
X023745Y009244D01*
X023721Y009286D01*
X023688Y009319D01*
X023647Y009343D01*
X023601Y009355D01*
X023737Y009259D02*
X024597Y009259D01*
X024592Y009418D02*
X023423Y009418D01*
X023252Y009259D02*
X023252Y009259D01*
X023252Y009101D02*
X023252Y009101D01*
X023252Y008942D02*
X023252Y008942D01*
X023252Y008850D02*
X023757Y008850D01*
X023252Y008850D01*
X023252Y008850D01*
X023252Y008784D02*
X023252Y008784D01*
X023252Y008625D02*
X023252Y008625D01*
X023252Y008467D02*
X023252Y008467D01*
X023748Y008467D02*
X024608Y008467D01*
X024592Y008430D02*
X024592Y008270D01*
X024653Y008123D01*
X024766Y008011D01*
X024913Y007950D01*
X025592Y007950D01*
X025739Y008011D01*
X025851Y008123D01*
X025912Y008270D01*
X025912Y008430D01*
X025851Y008577D01*
X025739Y008689D01*
X025592Y008750D01*
X024913Y008750D01*
X024766Y008689D01*
X024653Y008577D01*
X024592Y008430D01*
X024592Y008308D02*
X015979Y008308D01*
X016041Y008282D02*
X015878Y008350D01*
X016041Y008418D01*
X016185Y008561D01*
X016262Y008749D01*
X016262Y008951D01*
X016185Y009139D01*
X016041Y009282D01*
X015854Y009360D01*
X015651Y009360D01*
X015463Y009282D01*
X015320Y009139D01*
X015242Y008951D01*
X015242Y008749D01*
X015320Y008561D01*
X015463Y008418D01*
X015627Y008350D01*
X015463Y008282D01*
X015320Y008139D01*
X015242Y007951D01*
X015242Y007749D01*
X015320Y007561D01*
X015463Y007418D01*
X015651Y007340D01*
X015854Y007340D01*
X016041Y007418D01*
X016185Y007561D01*
X016262Y007749D01*
X016262Y007951D01*
X016185Y008139D01*
X016041Y008282D01*
X016174Y008150D02*
X024642Y008150D01*
X024814Y007991D02*
X016246Y007991D01*
X016262Y007833D02*
X026532Y007833D01*
X026532Y007991D02*
X025691Y007991D01*
X025862Y008150D02*
X026532Y008150D01*
X026532Y008308D02*
X025912Y008308D01*
X025897Y008467D02*
X026532Y008467D01*
X026532Y008625D02*
X025803Y008625D01*
X025829Y009101D02*
X026532Y009101D01*
X026532Y009259D02*
X025908Y009259D01*
X025912Y009418D02*
X026532Y009418D01*
X026532Y009576D02*
X025852Y009576D01*
X026532Y008942D02*
X023757Y008942D01*
X023757Y008784D02*
X026532Y008784D01*
X026972Y008784D02*
X027032Y008784D01*
X027032Y008942D02*
X026972Y008942D01*
X026972Y009101D02*
X027032Y009101D01*
X027032Y009259D02*
X026972Y009259D01*
X026972Y009418D02*
X027032Y009418D01*
X027032Y009576D02*
X026972Y009576D01*
X026972Y009735D02*
X027032Y009735D01*
X027032Y009893D02*
X026972Y009893D01*
X026972Y010052D02*
X027032Y010052D01*
X027032Y010210D02*
X026972Y010210D01*
X026972Y010369D02*
X027032Y010369D01*
X027032Y010527D02*
X026972Y010527D01*
X026972Y010686D02*
X027032Y010686D01*
X027032Y010844D02*
X026972Y010844D01*
X026972Y011003D02*
X027032Y011003D01*
X027032Y011161D02*
X026972Y011161D01*
X026972Y011320D02*
X027032Y011320D01*
X027032Y011478D02*
X026972Y011478D01*
X026972Y011637D02*
X027032Y011637D01*
X027032Y011795D02*
X026972Y011795D01*
X026972Y011954D02*
X027032Y011954D01*
X027032Y012112D02*
X026972Y012112D01*
X027032Y012191D02*
X027032Y006311D01*
X026963Y006282D01*
X026820Y006139D01*
X026762Y006000D01*
X026762Y006278D01*
X026680Y006360D01*
X026573Y006360D01*
X026972Y006759D01*
X026972Y013009D01*
X027093Y013130D01*
X027651Y013130D01*
X027653Y013123D01*
X027766Y013011D01*
X027913Y012950D01*
X028592Y012950D01*
X028739Y013011D01*
X028851Y013123D01*
X028912Y013270D01*
X028912Y013430D01*
X028851Y013577D01*
X028739Y013689D01*
X028592Y013750D01*
X027913Y013750D01*
X027766Y013689D01*
X027653Y013577D01*
X027651Y013570D01*
X026911Y013570D01*
X026661Y013320D01*
X026532Y013191D01*
X026532Y006941D01*
X026032Y006441D01*
X026032Y006360D01*
X025824Y006360D01*
X025742Y006278D01*
X025742Y005422D01*
X025824Y005340D01*
X026680Y005340D01*
X026762Y005422D01*
X026762Y005700D01*
X026820Y005561D01*
X026963Y005418D01*
X027151Y005340D01*
X027354Y005340D01*
X027541Y005418D01*
X027685Y005561D01*
X027731Y005674D01*
X027743Y005639D01*
X027782Y005562D01*
X027833Y005492D01*
X027894Y005430D01*
X027964Y005380D01*
X028041Y005340D01*
X028124Y005314D01*
X028209Y005300D01*
X028232Y005300D01*
X028232Y005830D01*
X028272Y005830D01*
X028272Y005300D01*
X028296Y005300D01*
X028381Y005314D01*
X028463Y005340D01*
X028541Y005380D01*
X028611Y005430D01*
X028672Y005492D01*
X028723Y005562D01*
X028762Y005639D01*
X028789Y005721D01*
X028802Y005807D01*
X028802Y005830D01*
X028272Y005830D01*
X028272Y005870D01*
X028232Y005870D01*
X028232Y006400D01*
X028209Y006400D01*
X028124Y006386D01*
X028041Y006360D01*
X027964Y006320D01*
X027894Y006270D01*
X027833Y006208D01*
X027782Y006138D01*
X027743Y006061D01*
X027731Y006026D01*
X027685Y006139D01*
X027541Y006282D01*
X027472Y006311D01*
X027472Y012009D01*
X027593Y012130D01*
X027651Y012130D01*
X027653Y012123D01*
X027766Y012011D01*
X027913Y011950D01*
X028592Y011950D01*
X028739Y012011D01*
X028851Y012123D01*
X028912Y012270D01*
X028912Y012430D01*
X028851Y012577D01*
X028739Y012689D01*
X028592Y012750D01*
X027913Y012750D01*
X027766Y012689D01*
X027653Y012577D01*
X027651Y012570D01*
X027411Y012570D01*
X027282Y012441D01*
X027032Y012191D01*
X026972Y012271D02*
X027112Y012271D01*
X026972Y012429D02*
X027270Y012429D01*
X027282Y012441D02*
X027282Y012441D01*
X027502Y012350D02*
X027252Y012100D01*
X027252Y005850D01*
X026798Y005614D02*
X026762Y005614D01*
X026762Y005455D02*
X026926Y005455D01*
X027579Y005455D02*
X027870Y005455D01*
X027756Y005614D02*
X027706Y005614D01*
X028232Y005614D02*
X028272Y005614D01*
X028272Y005772D02*
X028232Y005772D01*
X028272Y005870D02*
X028802Y005870D01*
X028802Y005893D01*
X028789Y005979D01*
X028762Y006061D01*
X028723Y006138D01*
X028672Y006208D01*
X028611Y006270D01*
X028541Y006320D01*
X028463Y006360D01*
X028381Y006386D01*
X028296Y006400D01*
X028272Y006400D01*
X028272Y005870D01*
X028272Y005931D02*
X028232Y005931D01*
X028232Y006089D02*
X028272Y006089D01*
X028272Y006248D02*
X028232Y006248D01*
X027872Y006248D02*
X027576Y006248D01*
X027472Y006406D02*
X029752Y006406D01*
X029752Y006248D02*
X028633Y006248D01*
X028748Y006089D02*
X029752Y006089D01*
X029752Y005931D02*
X028796Y005931D01*
X028797Y005772D02*
X029752Y005772D01*
X029752Y005614D02*
X028749Y005614D01*
X028635Y005455D02*
X029752Y005455D01*
X029752Y005297D02*
X023507Y005297D01*
X023541Y005282D02*
X023378Y005350D01*
X023541Y005418D01*
X023685Y005561D01*
X023762Y005749D01*
X023762Y005951D01*
X023685Y006139D01*
X023541Y006282D01*
X023354Y006360D01*
X023151Y006360D01*
X022963Y006282D01*
X022820Y006139D01*
X022742Y005951D01*
X022742Y005749D01*
X022820Y005561D01*
X022963Y005418D01*
X023127Y005350D01*
X022963Y005282D01*
X022820Y005139D01*
X022742Y004951D01*
X022742Y004749D01*
X022820Y004561D01*
X022963Y004418D01*
X023127Y004350D01*
X022963Y004282D01*
X022820Y004139D01*
X022742Y003951D01*
X022742Y003749D01*
X022820Y003561D01*
X022963Y003418D01*
X023151Y003340D01*
X023354Y003340D01*
X023541Y003418D01*
X023685Y003561D01*
X023762Y003749D01*
X023762Y003951D01*
X023685Y004139D01*
X023541Y004282D01*
X023378Y004350D01*
X023541Y004418D01*
X023685Y004561D01*
X023762Y004749D01*
X023762Y004951D01*
X023685Y005139D01*
X023541Y005282D01*
X023579Y005455D02*
X025742Y005455D01*
X025742Y005614D02*
X023706Y005614D01*
X023762Y005772D02*
X025742Y005772D01*
X025742Y005931D02*
X023762Y005931D01*
X023705Y006089D02*
X025742Y006089D01*
X025742Y006248D02*
X023576Y006248D01*
X022929Y006248D02*
X021552Y006248D01*
X021552Y006260D02*
X022082Y006260D01*
X022082Y006283D01*
X022069Y006369D01*
X022042Y006451D01*
X022003Y006528D01*
X021952Y006598D01*
X021891Y006660D01*
X021821Y006710D01*
X021743Y006750D01*
X021661Y006776D01*
X021576Y006790D01*
X021552Y006790D01*
X021552Y006260D01*
X021512Y006260D01*
X021512Y006220D01*
X020982Y006220D01*
X020982Y006197D01*
X020996Y006111D01*
X021023Y006029D01*
X021062Y005952D01*
X021113Y005882D01*
X021174Y005820D01*
X021244Y005770D01*
X021321Y005730D01*
X021404Y005704D01*
X021489Y005690D01*
X021512Y005690D01*
X021512Y006220D01*
X021552Y006220D01*
X021552Y005690D01*
X021576Y005690D01*
X021661Y005704D01*
X021743Y005730D01*
X021821Y005770D01*
X021891Y005820D01*
X021952Y005882D01*
X022003Y005952D01*
X022042Y006029D01*
X022069Y006111D01*
X022082Y006197D01*
X022082Y006220D01*
X021552Y006220D01*
X021552Y006260D01*
X021512Y006260D02*
X021512Y006790D01*
X021489Y006790D01*
X021404Y006776D01*
X021321Y006750D01*
X021244Y006710D01*
X021174Y006660D01*
X021113Y006598D01*
X021062Y006528D01*
X021023Y006451D01*
X020996Y006369D01*
X020982Y006283D01*
X020982Y006260D01*
X021512Y006260D01*
X021512Y006248D02*
X018992Y006248D01*
X018992Y006260D02*
X019522Y006260D01*
X019522Y006283D01*
X019509Y006369D01*
X019482Y006451D01*
X019443Y006528D01*
X019392Y006598D01*
X019331Y006660D01*
X019261Y006710D01*
X019183Y006750D01*
X019101Y006776D01*
X019016Y006790D01*
X018992Y006790D01*
X018992Y006260D01*
X018952Y006260D01*
X018952Y006220D01*
X018052Y006220D01*
X018052Y005690D01*
X018076Y005690D01*
X018161Y005704D01*
X018243Y005730D01*
X018321Y005770D01*
X018391Y005820D01*
X018452Y005882D01*
X018502Y005951D01*
X018553Y005882D01*
X018614Y005820D01*
X018684Y005770D01*
X018761Y005730D01*
X018844Y005704D01*
X018929Y005690D01*
X018952Y005690D01*
X018952Y006220D01*
X018992Y006220D01*
X018992Y005690D01*
X019016Y005690D01*
X019101Y005704D01*
X019183Y005730D01*
X019261Y005770D01*
X019331Y005820D01*
X019392Y005882D01*
X019443Y005952D01*
X019482Y006029D01*
X019509Y006111D01*
X019522Y006197D01*
X019522Y006220D01*
X018992Y006220D01*
X018992Y006260D01*
X018952Y006260D02*
X018952Y006790D01*
X018929Y006790D01*
X018844Y006776D01*
X018761Y006750D01*
X018684Y006710D01*
X018614Y006660D01*
X018553Y006598D01*
X018502Y006529D01*
X018452Y006598D01*
X018391Y006660D01*
X018321Y006710D01*
X018243Y006750D01*
X018161Y006776D01*
X018076Y006790D01*
X018052Y006790D01*
X018052Y006260D01*
X018012Y006260D01*
X018012Y006220D01*
X017482Y006220D01*
X017482Y006197D01*
X017496Y006111D01*
X017523Y006029D01*
X017562Y005952D01*
X017613Y005882D01*
X017674Y005820D01*
X017744Y005770D01*
X017821Y005730D01*
X017904Y005704D01*
X017989Y005690D01*
X018012Y005690D01*
X018012Y006220D01*
X018052Y006220D01*
X018052Y006260D01*
X018422Y006260D01*
X018952Y006260D01*
X018952Y006248D02*
X018052Y006248D01*
X018012Y006248D02*
X015492Y006248D01*
X015492Y006260D02*
X016022Y006260D01*
X016022Y006283D01*
X016009Y006369D01*
X015982Y006451D01*
X015943Y006528D01*
X015892Y006598D01*
X015831Y006660D01*
X015761Y006710D01*
X015683Y006750D01*
X015601Y006776D01*
X015516Y006790D01*
X015492Y006790D01*
X015492Y006260D01*
X015452Y006260D01*
X015452Y006220D01*
X014922Y006220D01*
X014922Y006197D01*
X014936Y006111D01*
X014963Y006029D01*
X015002Y005952D01*
X015053Y005882D01*
X015114Y005820D01*
X015184Y005770D01*
X015261Y005730D01*
X015344Y005704D01*
X015429Y005690D01*
X015452Y005690D01*
X015452Y006220D01*
X015492Y006220D01*
X015492Y005690D01*
X015516Y005690D01*
X015601Y005704D01*
X015683Y005730D01*
X015761Y005770D01*
X015831Y005820D01*
X015892Y005882D01*
X015943Y005952D01*
X015982Y006029D01*
X016009Y006111D01*
X016022Y006197D01*
X016022Y006220D01*
X015492Y006220D01*
X015492Y006260D01*
X015452Y006260D02*
X015452Y006790D01*
X015429Y006790D01*
X015344Y006776D01*
X015261Y006750D01*
X015184Y006710D01*
X015114Y006660D01*
X015053Y006598D01*
X015002Y006528D01*
X014963Y006451D01*
X014936Y006369D01*
X014922Y006283D01*
X014922Y006260D01*
X015452Y006260D01*
X015452Y006248D02*
X014052Y006248D01*
X014052Y006260D02*
X014582Y006260D01*
X014582Y006283D01*
X014569Y006369D01*
X014542Y006451D01*
X014503Y006528D01*
X014452Y006598D01*
X014391Y006660D01*
X014321Y006710D01*
X014243Y006750D01*
X014161Y006776D01*
X014076Y006790D01*
X014052Y006790D01*
X014052Y006260D01*
X014012Y006260D01*
X014012Y006220D01*
X013482Y006220D01*
X013482Y006197D01*
X013496Y006111D01*
X013523Y006029D01*
X013562Y005952D01*
X013613Y005882D01*
X013674Y005820D01*
X013744Y005770D01*
X013821Y005730D01*
X013904Y005704D01*
X013989Y005690D01*
X014012Y005690D01*
X014012Y006220D01*
X014052Y006220D01*
X014052Y005690D01*
X014076Y005690D01*
X014161Y005704D01*
X014243Y005730D01*
X014321Y005770D01*
X014391Y005820D01*
X014452Y005882D01*
X014503Y005952D01*
X014542Y006029D01*
X014569Y006111D01*
X014582Y006197D01*
X014582Y006220D01*
X014052Y006220D01*
X014052Y006260D01*
X014012Y006260D02*
X014012Y006790D01*
X013989Y006790D01*
X013904Y006776D01*
X013821Y006750D01*
X013744Y006710D01*
X013674Y006660D01*
X013613Y006598D01*
X013562Y006528D01*
X013523Y006451D01*
X013496Y006369D01*
X013482Y006283D01*
X013482Y006260D01*
X014012Y006260D01*
X014012Y006248D02*
X011492Y006248D01*
X011492Y006260D02*
X012022Y006260D01*
X012022Y006283D01*
X012009Y006369D01*
X011982Y006451D01*
X011943Y006528D01*
X011892Y006598D01*
X011831Y006660D01*
X011761Y006710D01*
X011683Y006750D01*
X011601Y006776D01*
X011516Y006790D01*
X011492Y006790D01*
X011492Y006260D01*
X011452Y006260D01*
X011452Y006220D01*
X010922Y006220D01*
X010922Y006197D01*
X010936Y006111D01*
X010963Y006029D01*
X011002Y005952D01*
X011053Y005882D01*
X011114Y005820D01*
X011184Y005770D01*
X011261Y005730D01*
X011344Y005704D01*
X011429Y005690D01*
X011452Y005690D01*
X011452Y006220D01*
X011492Y006220D01*
X011492Y005690D01*
X011516Y005690D01*
X011601Y005704D01*
X011683Y005730D01*
X011761Y005770D01*
X011831Y005820D01*
X011892Y005882D01*
X011943Y005952D01*
X011982Y006029D01*
X012009Y006111D01*
X012022Y006197D01*
X012022Y006220D01*
X011492Y006220D01*
X011492Y006260D01*
X011452Y006260D02*
X011452Y006790D01*
X011429Y006790D01*
X011344Y006776D01*
X011261Y006750D01*
X011184Y006710D01*
X011114Y006660D01*
X011053Y006598D01*
X011002Y006528D01*
X010963Y006451D01*
X010936Y006369D01*
X010922Y006283D01*
X010922Y006260D01*
X011452Y006260D01*
X011452Y006248D02*
X010052Y006248D01*
X010052Y006260D02*
X010582Y006260D01*
X010582Y006283D01*
X010569Y006369D01*
X010542Y006451D01*
X010503Y006528D01*
X010452Y006598D01*
X010391Y006660D01*
X010321Y006710D01*
X010243Y006750D01*
X010161Y006776D01*
X010076Y006790D01*
X010052Y006790D01*
X010052Y006260D01*
X010012Y006260D01*
X010012Y006220D01*
X009482Y006220D01*
X009482Y006197D01*
X009496Y006111D01*
X009523Y006029D01*
X009562Y005952D01*
X009613Y005882D01*
X009674Y005820D01*
X009744Y005770D01*
X009821Y005730D01*
X009904Y005704D01*
X009989Y005690D01*
X010012Y005690D01*
X010012Y006220D01*
X010052Y006220D01*
X010052Y005690D01*
X010076Y005690D01*
X010161Y005704D01*
X010243Y005730D01*
X010321Y005770D01*
X010391Y005820D01*
X010452Y005882D01*
X010503Y005952D01*
X010542Y006029D01*
X010569Y006111D01*
X010582Y006197D01*
X010582Y006220D01*
X010052Y006220D01*
X010052Y006260D01*
X010012Y006260D02*
X010012Y006790D01*
X009989Y006790D01*
X009904Y006776D01*
X009821Y006750D01*
X009744Y006710D01*
X009674Y006660D01*
X009613Y006598D01*
X009562Y006528D01*
X009523Y006451D01*
X009496Y006369D01*
X009482Y006283D01*
X009482Y006260D01*
X010012Y006260D01*
X010012Y006248D02*
X007492Y006248D01*
X007492Y006260D02*
X008022Y006260D01*
X008022Y006283D01*
X008009Y006369D01*
X007982Y006451D01*
X007943Y006528D01*
X007892Y006598D01*
X007831Y006660D01*
X007761Y006710D01*
X007683Y006750D01*
X007601Y006776D01*
X007516Y006790D01*
X007492Y006790D01*
X007492Y006260D01*
X007452Y006260D01*
X007452Y006220D01*
X006922Y006220D01*
X006922Y006197D01*
X006936Y006111D01*
X006963Y006029D01*
X007002Y005952D01*
X007053Y005882D01*
X007114Y005820D01*
X007184Y005770D01*
X007261Y005730D01*
X007344Y005704D01*
X007429Y005690D01*
X007452Y005690D01*
X007452Y006220D01*
X007492Y006220D01*
X007492Y005690D01*
X007516Y005690D01*
X007601Y005704D01*
X007683Y005730D01*
X007761Y005770D01*
X007831Y005820D01*
X007892Y005882D01*
X007943Y005952D01*
X007982Y006029D01*
X008009Y006111D01*
X008022Y006197D01*
X008022Y006220D01*
X007492Y006220D01*
X007492Y006260D01*
X007452Y006260D02*
X007452Y006790D01*
X007429Y006790D01*
X007344Y006776D01*
X007261Y006750D01*
X007184Y006710D01*
X007114Y006660D01*
X007053Y006598D01*
X007002Y006528D01*
X006963Y006451D01*
X006936Y006369D01*
X006922Y006283D01*
X006922Y006260D01*
X007452Y006260D01*
X007452Y006248D02*
X006252Y006248D01*
X006252Y006406D02*
X006948Y006406D01*
X007028Y006565D02*
X006252Y006565D01*
X006252Y006723D02*
X007209Y006723D01*
X007452Y006723D02*
X007492Y006723D01*
X007492Y006565D02*
X007452Y006565D01*
X007452Y006406D02*
X007492Y006406D01*
X007736Y006723D02*
X009769Y006723D01*
X009588Y006565D02*
X007916Y006565D01*
X007997Y006406D02*
X009508Y006406D01*
X009503Y006089D02*
X008002Y006089D01*
X007927Y005931D02*
X009577Y005931D01*
X009741Y005772D02*
X007764Y005772D01*
X007492Y005772D02*
X007452Y005772D01*
X007452Y005931D02*
X007492Y005931D01*
X007492Y006089D02*
X007452Y006089D01*
X007181Y005772D02*
X006252Y005772D01*
X006252Y005614D02*
X022798Y005614D01*
X022742Y005772D02*
X021824Y005772D01*
X021987Y005931D02*
X022742Y005931D01*
X022799Y006089D02*
X022062Y006089D01*
X022057Y006406D02*
X026032Y006406D01*
X026156Y006565D02*
X021976Y006565D01*
X021796Y006723D02*
X026314Y006723D01*
X026473Y006882D02*
X006252Y006882D01*
X006252Y007040D02*
X026532Y007040D01*
X026532Y007199D02*
X006252Y007199D01*
X006252Y007357D02*
X008110Y007357D01*
X008151Y007340D02*
X007963Y007418D01*
X007820Y007561D01*
X007742Y007749D01*
X007742Y007951D01*
X007820Y008139D01*
X007963Y008282D01*
X008127Y008350D01*
X007963Y008418D01*
X007820Y008561D01*
X007742Y008749D01*
X007742Y008951D01*
X007820Y009139D01*
X007963Y009282D01*
X008151Y009360D01*
X008354Y009360D01*
X008541Y009282D01*
X008685Y009139D01*
X008762Y008951D01*
X008762Y008749D01*
X008685Y008561D01*
X008541Y008418D01*
X008378Y008350D01*
X008541Y008282D01*
X008685Y008139D01*
X008762Y007951D01*
X008762Y007749D01*
X008685Y007561D01*
X008541Y007418D01*
X008354Y007340D01*
X008151Y007340D01*
X008395Y007357D02*
X011110Y007357D01*
X011151Y007340D02*
X010963Y007418D01*
X010820Y007561D01*
X010742Y007749D01*
X010742Y007951D01*
X010820Y008139D01*
X010963Y008282D01*
X011127Y008350D01*
X010963Y008418D01*
X010820Y008561D01*
X010742Y008749D01*
X010742Y008951D01*
X010820Y009139D01*
X010963Y009282D01*
X011151Y009360D01*
X011354Y009360D01*
X011541Y009282D01*
X011685Y009139D01*
X011762Y008951D01*
X011762Y008749D01*
X011685Y008561D01*
X011541Y008418D01*
X011378Y008350D01*
X011541Y008282D01*
X011685Y008139D01*
X011762Y007951D01*
X011762Y007749D01*
X011685Y007561D01*
X011541Y007418D01*
X011354Y007340D01*
X011151Y007340D01*
X011395Y007357D02*
X012610Y007357D01*
X012651Y007340D02*
X012463Y007418D01*
X012320Y007561D01*
X012242Y007749D01*
X012242Y007951D01*
X012320Y008139D01*
X012463Y008282D01*
X012627Y008350D01*
X012463Y008418D01*
X012320Y008561D01*
X012242Y008749D01*
X012242Y008951D01*
X012320Y009139D01*
X012463Y009282D01*
X012651Y009360D01*
X012854Y009360D01*
X013041Y009282D01*
X013185Y009139D01*
X013262Y008951D01*
X013262Y008749D01*
X013185Y008561D01*
X013041Y008418D01*
X012878Y008350D01*
X013041Y008282D01*
X013185Y008139D01*
X013262Y007951D01*
X013262Y007749D01*
X013185Y007561D01*
X013041Y007418D01*
X012854Y007340D01*
X012651Y007340D01*
X012895Y007357D02*
X015610Y007357D01*
X015895Y007357D02*
X026532Y007357D01*
X026532Y007516D02*
X016139Y007516D01*
X016231Y007674D02*
X026532Y007674D01*
X026972Y007674D02*
X027032Y007674D01*
X027032Y007516D02*
X026972Y007516D01*
X026972Y007357D02*
X027032Y007357D01*
X027032Y007199D02*
X026972Y007199D01*
X026972Y007040D02*
X027032Y007040D01*
X027032Y006882D02*
X026972Y006882D01*
X026937Y006723D02*
X027032Y006723D01*
X027032Y006565D02*
X026778Y006565D01*
X026620Y006406D02*
X027032Y006406D01*
X026929Y006248D02*
X026762Y006248D01*
X026762Y006089D02*
X026799Y006089D01*
X026252Y005850D02*
X026252Y006350D01*
X026752Y006850D01*
X026752Y013100D01*
X027002Y013350D01*
X028252Y013350D01*
X027785Y013697D02*
X025720Y013697D01*
X025739Y013689D02*
X025592Y013750D01*
X024913Y013750D01*
X024766Y013689D01*
X024653Y013577D01*
X024651Y013570D01*
X023630Y013570D01*
X023647Y013587D01*
X023717Y013758D01*
X023717Y013942D01*
X023647Y014113D01*
X023516Y014244D01*
X023345Y014315D01*
X023160Y014315D01*
X022989Y014244D01*
X022858Y014113D01*
X022787Y013942D01*
X022787Y013758D01*
X022858Y013587D01*
X022989Y013456D01*
X023154Y013388D01*
X023282Y013259D01*
X023411Y013130D01*
X024651Y013130D01*
X024653Y013123D01*
X024766Y013011D01*
X024913Y012950D01*
X025592Y012950D01*
X025739Y013011D01*
X025851Y013123D01*
X025912Y013270D01*
X025912Y013430D01*
X025851Y013577D01*
X025739Y013689D01*
X025867Y013539D02*
X026880Y013539D01*
X026721Y013380D02*
X025912Y013380D01*
X025892Y013222D02*
X026563Y013222D01*
X026532Y013063D02*
X025791Y013063D01*
X025601Y012746D02*
X026532Y012746D01*
X026532Y012588D02*
X025841Y012588D01*
X025851Y012577D02*
X025739Y012689D01*
X025592Y012750D01*
X024913Y012750D01*
X024766Y012689D01*
X024653Y012577D01*
X024651Y012570D01*
X023717Y012570D01*
X023717Y012733D01*
X023635Y012815D01*
X022869Y012815D01*
X022787Y012733D01*
X022787Y011967D01*
X022869Y011885D01*
X023635Y011885D01*
X023717Y011967D01*
X023717Y012130D01*
X024651Y012130D01*
X024653Y012123D01*
X024766Y012011D01*
X024913Y011950D01*
X025592Y011950D01*
X025739Y012011D01*
X025851Y012123D01*
X025912Y012270D01*
X025912Y012430D01*
X025851Y012577D01*
X025912Y012429D02*
X026532Y012429D01*
X026532Y012271D02*
X025912Y012271D01*
X025840Y012112D02*
X026532Y012112D01*
X026532Y011954D02*
X025600Y011954D01*
X025592Y011750D02*
X024913Y011750D01*
X024766Y011689D01*
X024653Y011577D01*
X024651Y011570D01*
X023665Y011570D01*
X023647Y011613D01*
X023516Y011744D01*
X023345Y011815D01*
X023160Y011815D01*
X022989Y011744D01*
X022858Y011613D01*
X022787Y011442D01*
X022787Y011258D01*
X022858Y011087D01*
X022989Y010956D01*
X023160Y010885D01*
X023345Y010885D01*
X023516Y010956D01*
X023647Y011087D01*
X023665Y011130D01*
X024651Y011130D01*
X024653Y011123D01*
X024766Y011011D01*
X024913Y010950D01*
X025592Y010950D01*
X025739Y011011D01*
X025851Y011123D01*
X025912Y011270D01*
X025912Y011430D01*
X025851Y011577D01*
X025739Y011689D01*
X025592Y011750D01*
X025792Y011637D02*
X026532Y011637D01*
X026532Y011795D02*
X023393Y011795D01*
X023623Y011637D02*
X024713Y011637D01*
X024904Y011954D02*
X023704Y011954D01*
X023717Y012112D02*
X024665Y012112D01*
X024664Y012588D02*
X023717Y012588D01*
X023704Y012746D02*
X024903Y012746D01*
X024714Y013063D02*
X021686Y013063D01*
X021685Y013061D02*
X021762Y013249D01*
X021762Y013451D01*
X021685Y013639D01*
X021541Y013782D01*
X021378Y013850D01*
X021541Y013918D01*
X021685Y014061D01*
X021762Y014249D01*
X021762Y014451D01*
X021685Y014639D01*
X021541Y014782D01*
X021354Y014860D01*
X021151Y014860D01*
X021082Y014831D01*
X020972Y014941D01*
X020972Y015759D01*
X021343Y016130D01*
X022343Y016130D01*
X022843Y016630D01*
X022972Y016759D01*
X022972Y017165D01*
X023002Y017177D01*
X023125Y017301D01*
X023192Y017462D01*
X023192Y018238D01*
X023125Y018399D01*
X023002Y018523D01*
X022840Y018590D01*
X022665Y018590D01*
X022503Y018523D01*
X022379Y018399D01*
X022312Y018238D01*
X022312Y017462D01*
X022379Y017301D01*
X022503Y017177D01*
X022532Y017165D01*
X022532Y016941D01*
X022161Y016570D01*
X021161Y016570D01*
X020661Y016070D01*
X020532Y015941D01*
X020532Y014759D01*
X020771Y014520D01*
X020742Y014451D01*
X020742Y014249D01*
X020820Y014061D01*
X020963Y013918D01*
X021127Y013850D01*
X020963Y013782D01*
X020820Y013639D01*
X020791Y013570D01*
X019593Y013570D01*
X019472Y013691D01*
X019472Y015076D01*
X019516Y015032D01*
X019988Y015032D01*
X020070Y015114D01*
X020070Y015586D01*
X019988Y015668D01*
X019972Y015668D01*
X019972Y016259D01*
X020343Y016630D01*
X021343Y016630D01*
X021472Y016759D01*
X021823Y017110D01*
X021840Y017110D01*
X022002Y017177D01*
X022125Y017301D01*
X022192Y017462D01*
X022192Y018238D01*
X022125Y018399D01*
X022002Y018523D01*
X021972Y018535D01*
X021972Y018759D01*
X022343Y019130D01*
X026661Y019130D01*
X027032Y018759D01*
X027032Y017762D01*
X026989Y017744D01*
X026858Y017613D01*
X026787Y017442D01*
X026787Y017258D01*
X026858Y017087D01*
X026989Y016956D01*
X027160Y016885D01*
X027345Y016885D01*
X027516Y016956D01*
X027647Y017087D01*
X027664Y017128D01*
X028032Y016759D01*
X028032Y015750D01*
X027913Y015750D01*
X027766Y015689D01*
X027653Y015577D01*
X027592Y015430D01*
X027592Y015270D01*
X027653Y015123D01*
X027766Y015011D01*
X027913Y014950D01*
X028592Y014950D01*
X028739Y015011D01*
X028851Y015123D01*
X028912Y015270D01*
X028912Y015430D01*
X028851Y015577D01*
X028739Y015689D01*
X028592Y015750D01*
X028472Y015750D01*
X028472Y016941D01*
X027972Y017441D01*
X027843Y017570D01*
X027665Y017570D01*
X027647Y017613D01*
X027516Y017744D01*
X027472Y017762D01*
X027472Y018941D01*
X027343Y019070D01*
X026843Y019570D01*
X022161Y019570D01*
X022032Y019441D01*
X021532Y018941D01*
X021532Y018535D01*
X021503Y018523D01*
X021379Y018399D01*
X021312Y018238D01*
X021312Y017462D01*
X021379Y017301D01*
X021386Y017294D01*
X021161Y017070D01*
X020161Y017070D01*
X019661Y016570D01*
X019532Y016441D01*
X019532Y015668D01*
X019516Y015668D01*
X019472Y015624D01*
X019472Y017208D01*
X019503Y017177D01*
X019665Y017110D01*
X019840Y017110D01*
X020002Y017177D01*
X020125Y017301D01*
X020192Y017462D01*
X020192Y018238D01*
X020125Y018399D01*
X020002Y018523D01*
X019840Y018590D01*
X019707Y018590D01*
X020169Y019205D01*
X020222Y019259D01*
X020222Y019277D01*
X020233Y019291D01*
X020222Y019366D01*
X020222Y020941D01*
X020093Y021070D01*
X019873Y021290D01*
X028312Y021290D01*
X028752Y020850D01*
X028752Y016350D01*
X029752Y015350D01*
X029752Y002350D01*
X028752Y001350D01*
X028752Y000350D01*
X007252Y000350D01*
X006252Y001350D01*
X006252Y020350D01*
X007192Y021290D01*
X017381Y021290D01*
X017282Y021191D01*
X017032Y020941D01*
X017032Y020811D01*
X016963Y020782D01*
X016820Y020639D01*
X016752Y020476D01*
X016685Y020639D01*
X016541Y020782D01*
X016354Y020860D01*
X016151Y020860D01*
X015963Y020782D01*
X015820Y020639D01*
X015752Y020476D01*
X015685Y020639D01*
X015541Y020782D01*
X015354Y020860D01*
X015151Y020860D01*
X014963Y020782D01*
X014820Y020639D01*
X014752Y020476D01*
X014685Y020639D01*
X014541Y020782D01*
X014354Y020860D01*
X014151Y020860D01*
X013963Y020782D01*
X013820Y020639D01*
X013773Y020526D01*
X013762Y020561D01*
X013723Y020638D01*
X013672Y020708D01*
X013611Y020770D01*
X013541Y020820D01*
X013463Y020860D01*
X013381Y020886D01*
X013296Y020900D01*
X013272Y020900D01*
X013272Y020370D01*
X013232Y020370D01*
X013232Y020900D01*
X013209Y020900D01*
X013124Y020886D01*
X013041Y020860D01*
X012964Y020820D01*
X012894Y020770D01*
X012833Y020708D01*
X012782Y020638D01*
X012743Y020561D01*
X012731Y020526D01*
X012685Y020639D01*
X012541Y020782D01*
X012354Y020860D01*
X012151Y020860D01*
X011963Y020782D01*
X011820Y020639D01*
X011742Y020451D01*
X011742Y020249D01*
X011820Y020061D01*
X011963Y019918D01*
X012151Y019840D01*
X012354Y019840D01*
X012541Y019918D01*
X012685Y020061D01*
X012731Y020174D01*
X012743Y020139D01*
X012782Y020062D01*
X012833Y019992D01*
X012894Y019930D01*
X012964Y019880D01*
X013041Y019840D01*
X013124Y019814D01*
X013209Y019800D01*
X013232Y019800D01*
X013232Y020330D01*
X013272Y020330D01*
X013272Y019800D01*
X013296Y019800D01*
X013381Y019814D01*
X013463Y019840D01*
X013541Y019880D01*
X013611Y019930D01*
X013672Y019992D01*
X013723Y020062D01*
X013762Y020139D01*
X013773Y020174D01*
X013820Y020061D01*
X013963Y019918D01*
X014151Y019840D01*
X014354Y019840D01*
X014541Y019918D01*
X014685Y020061D01*
X014752Y020224D01*
X014820Y020061D01*
X014963Y019918D01*
X015151Y019840D01*
X015354Y019840D01*
X015541Y019918D01*
X015685Y020061D01*
X015752Y020224D01*
X015820Y020061D01*
X015963Y019918D01*
X016151Y019840D01*
X016354Y019840D01*
X016541Y019918D01*
X016685Y020061D01*
X016752Y020224D01*
X016820Y020061D01*
X016963Y019918D01*
X017151Y019840D01*
X017354Y019840D01*
X017541Y019918D01*
X017685Y020061D01*
X017752Y020224D01*
X017820Y020061D01*
X017963Y019918D01*
X018151Y019840D01*
X018354Y019840D01*
X018541Y019918D01*
X018685Y020061D01*
X018752Y020224D01*
X018820Y020061D01*
X018963Y019918D01*
X019032Y019889D01*
X019032Y019441D01*
X018661Y019070D01*
X011015Y019070D01*
X010886Y018941D01*
X010532Y018588D01*
X010532Y018535D01*
X010503Y018523D01*
X010379Y018399D01*
X010312Y018238D01*
X010312Y017462D01*
X010379Y017301D01*
X010503Y017177D01*
X010665Y017110D01*
X010840Y017110D01*
X011002Y017177D01*
X011125Y017301D01*
X011192Y017462D01*
X011192Y018238D01*
X011125Y018399D01*
X011046Y018479D01*
X011197Y018630D01*
X018843Y018630D01*
X019343Y019130D01*
X019472Y019259D01*
X019472Y019889D01*
X019541Y019918D01*
X019685Y020061D01*
X019762Y020249D01*
X019762Y020451D01*
X019685Y020639D01*
X019541Y020782D01*
X019354Y020860D01*
X019151Y020860D01*
X018963Y020782D01*
X018820Y020639D01*
X018752Y020476D01*
X018685Y020639D01*
X018541Y020782D01*
X018354Y020860D01*
X018151Y020860D01*
X017963Y020782D01*
X017820Y020639D01*
X017752Y020476D01*
X017685Y020639D01*
X017541Y020782D01*
X017509Y020796D01*
X017593Y020880D01*
X019661Y020880D01*
X019782Y020759D01*
X019782Y019423D01*
X019086Y018495D01*
X019058Y018467D01*
X019002Y018523D01*
X018840Y018590D01*
X018665Y018590D01*
X018503Y018523D01*
X018379Y018399D01*
X018312Y018238D01*
X018312Y017462D01*
X018379Y017301D01*
X018503Y017177D01*
X018665Y017110D01*
X018840Y017110D01*
X019002Y017177D01*
X019032Y017208D01*
X019032Y014570D01*
X012015Y014570D01*
X011886Y014441D01*
X011532Y014088D01*
X011532Y013811D01*
X011463Y013782D01*
X011320Y013639D01*
X011252Y013476D01*
X011185Y013639D01*
X011041Y013782D01*
X010854Y013860D01*
X010651Y013860D01*
X010463Y013782D01*
X010320Y013639D01*
X010242Y013451D01*
X010242Y013298D01*
X010161Y013216D01*
X010032Y013088D01*
X010032Y012196D01*
X009852Y012016D01*
X009852Y011684D01*
X010087Y011450D01*
X010418Y011450D01*
X010652Y011684D01*
X010652Y012016D01*
X010472Y012196D01*
X010472Y012905D01*
X010478Y012911D01*
X010651Y012840D01*
X010854Y012840D01*
X011041Y012918D01*
X011185Y013061D01*
X011252Y013224D01*
X011320Y013061D01*
X011463Y012918D01*
X011651Y012840D01*
X011854Y012840D01*
X012041Y012918D01*
X012185Y013061D01*
X012262Y013249D01*
X012262Y013451D01*
X012185Y013639D01*
X012041Y013782D01*
X011972Y013811D01*
X011972Y013905D01*
X012197Y014130D01*
X019032Y014130D01*
X019032Y013570D01*
X017713Y013570D01*
X017685Y013639D01*
X017541Y013782D01*
X017354Y013860D01*
X017151Y013860D01*
X016963Y013782D01*
X016820Y013639D01*
X016752Y013476D01*
X016685Y013639D01*
X016541Y013782D01*
X016354Y013860D01*
X016151Y013860D01*
X015963Y013782D01*
X015820Y013639D01*
X015752Y013476D01*
X015685Y013639D01*
X015541Y013782D01*
X015354Y013860D01*
X015151Y013860D01*
X014963Y013782D01*
X014820Y013639D01*
X014791Y013570D01*
X013411Y013570D01*
X013032Y013191D01*
X013032Y012196D01*
X012852Y012016D01*
X012852Y011684D01*
X013087Y011450D01*
X013418Y011450D01*
X013652Y011684D01*
X013652Y012016D01*
X013472Y012196D01*
X013472Y013009D01*
X013593Y013130D01*
X014791Y013130D01*
X014820Y013061D01*
X014963Y012918D01*
X015151Y012840D01*
X015354Y012840D01*
X015541Y012918D01*
X015685Y013061D01*
X015752Y013224D01*
X015820Y013061D01*
X015963Y012918D01*
X016032Y012889D01*
X016032Y012196D01*
X015852Y012016D01*
X015852Y011684D01*
X016087Y011450D01*
X016418Y011450D01*
X016652Y011684D01*
X016652Y012016D01*
X016472Y012196D01*
X016472Y012889D01*
X016541Y012918D01*
X016685Y013061D01*
X016752Y013224D01*
X016820Y013061D01*
X016963Y012918D01*
X017151Y012840D01*
X017354Y012840D01*
X017541Y012918D01*
X017685Y013061D01*
X017713Y013130D01*
X018911Y013130D01*
X019032Y013009D01*
X019032Y012196D01*
X018852Y012016D01*
X018852Y011684D01*
X019087Y011450D01*
X019418Y011450D01*
X019652Y011684D01*
X019652Y012016D01*
X019472Y012196D01*
X019472Y013130D01*
X020791Y013130D01*
X020820Y013061D01*
X020963Y012918D01*
X021076Y012871D01*
X021041Y012860D01*
X020964Y012820D01*
X020894Y012770D01*
X020833Y012708D01*
X020782Y012638D01*
X020743Y012561D01*
X020716Y012479D01*
X020702Y012393D01*
X020702Y012350D01*
X021252Y012350D01*
X020702Y012350D01*
X020702Y012307D01*
X020716Y012221D01*
X020743Y012139D01*
X020782Y012062D01*
X020833Y011992D01*
X020894Y011930D01*
X020964Y011880D01*
X021041Y011840D01*
X021124Y011814D01*
X021209Y011800D01*
X021252Y011800D01*
X021252Y012350D01*
X021252Y012350D01*
X021252Y012350D01*
X021252Y011800D01*
X021296Y011800D01*
X021381Y011814D01*
X021463Y011840D01*
X021541Y011880D01*
X021611Y011930D01*
X021672Y011992D01*
X021723Y012062D01*
X021762Y012139D01*
X021789Y012221D01*
X021802Y012307D01*
X021802Y012350D01*
X021802Y012393D01*
X021789Y012479D01*
X021762Y012561D01*
X021723Y012638D01*
X021672Y012708D01*
X021611Y012770D01*
X021541Y012820D01*
X021463Y012860D01*
X021429Y012871D01*
X021541Y012918D01*
X021685Y013061D01*
X021751Y013222D02*
X023320Y013222D01*
X023502Y013350D02*
X025252Y013350D01*
X024785Y013697D02*
X023692Y013697D01*
X023717Y013856D02*
X029752Y013856D01*
X029752Y014014D02*
X028799Y014014D01*
X028848Y014063D01*
X028889Y014119D01*
X028920Y014181D01*
X028942Y014247D01*
X028952Y014315D01*
X028952Y014350D01*
X028952Y014385D01*
X028942Y014453D01*
X028920Y014519D01*
X028889Y014581D01*
X028848Y014637D01*
X028799Y014686D01*
X028743Y014726D01*
X028681Y014758D01*
X028615Y014779D01*
X028547Y014790D01*
X028252Y014790D01*
X027958Y014790D01*
X027889Y014779D01*
X027823Y014758D01*
X027762Y014726D01*
X027706Y014686D01*
X027657Y014637D01*
X027616Y014581D01*
X027585Y014519D01*
X027563Y014453D01*
X027552Y014385D01*
X027552Y014350D01*
X027552Y014315D01*
X027563Y014247D01*
X027585Y014181D01*
X027616Y014119D01*
X027657Y014063D01*
X027706Y014014D01*
X025742Y014014D01*
X025739Y014011D02*
X025851Y014123D01*
X025862Y014148D01*
X026472Y014759D01*
X026472Y016885D01*
X026635Y016885D01*
X026717Y016967D01*
X026717Y017733D01*
X026635Y017815D01*
X025869Y017815D01*
X025787Y017733D01*
X025787Y016967D01*
X025869Y016885D01*
X026032Y016885D01*
X026032Y014941D01*
X025760Y014668D01*
X025739Y014689D01*
X025592Y014750D01*
X024913Y014750D01*
X024766Y014689D01*
X024653Y014577D01*
X024592Y014430D01*
X024592Y014270D01*
X024653Y014123D01*
X024766Y014011D01*
X024913Y013950D01*
X025592Y013950D01*
X025739Y014011D01*
X025886Y014173D02*
X027589Y014173D01*
X027552Y014331D02*
X026045Y014331D01*
X026203Y014490D02*
X027575Y014490D01*
X027552Y014350D02*
X028252Y014350D01*
X027552Y014350D01*
X027706Y014014D02*
X027762Y013974D01*
X027823Y013942D01*
X027889Y013921D01*
X027958Y013910D01*
X028252Y013910D01*
X028252Y014350D01*
X028252Y014350D01*
X028252Y014350D01*
X028252Y014790D01*
X028252Y014350D01*
X028252Y014350D01*
X028252Y013910D01*
X028547Y013910D01*
X028615Y013921D01*
X028681Y013942D01*
X028743Y013974D01*
X028799Y014014D01*
X028916Y014173D02*
X029752Y014173D01*
X029752Y014331D02*
X028952Y014331D01*
X028952Y014350D02*
X028252Y014350D01*
X028952Y014350D01*
X028930Y014490D02*
X029752Y014490D01*
X029752Y014648D02*
X028837Y014648D01*
X028628Y014965D02*
X029752Y014965D01*
X029752Y014807D02*
X026472Y014807D01*
X026472Y014965D02*
X027876Y014965D01*
X027653Y015124D02*
X026472Y015124D01*
X026472Y015282D02*
X027592Y015282D01*
X027597Y015441D02*
X026472Y015441D01*
X026472Y015599D02*
X027676Y015599D01*
X028032Y015758D02*
X026472Y015758D01*
X026472Y015916D02*
X028032Y015916D01*
X028032Y016075D02*
X026472Y016075D01*
X026472Y016233D02*
X028032Y016233D01*
X028032Y016392D02*
X026472Y016392D01*
X026472Y016550D02*
X028032Y016550D01*
X028032Y016709D02*
X026472Y016709D01*
X026472Y016867D02*
X027924Y016867D01*
X027766Y017026D02*
X027586Y017026D01*
X027752Y017350D02*
X027252Y017350D01*
X027252Y018850D01*
X026752Y019350D01*
X022252Y019350D01*
X021752Y018850D01*
X021752Y017850D01*
X021752Y017350D01*
X021252Y016850D01*
X020252Y016850D01*
X019752Y016350D01*
X019752Y015350D01*
X020070Y015282D02*
X020532Y015282D01*
X020532Y015124D02*
X020070Y015124D01*
X020070Y015441D02*
X020532Y015441D01*
X020532Y015599D02*
X020058Y015599D01*
X019972Y015758D02*
X020532Y015758D01*
X020532Y015916D02*
X019972Y015916D01*
X019972Y016075D02*
X020666Y016075D01*
X020824Y016233D02*
X019972Y016233D01*
X020105Y016392D02*
X020983Y016392D01*
X021141Y016550D02*
X020264Y016550D01*
X019958Y016867D02*
X019472Y016867D01*
X019472Y016709D02*
X019800Y016709D01*
X019641Y016550D02*
X019472Y016550D01*
X019472Y016392D02*
X019532Y016392D01*
X019532Y016233D02*
X019472Y016233D01*
X019472Y016075D02*
X019532Y016075D01*
X019532Y015916D02*
X019472Y015916D01*
X019472Y015758D02*
X019532Y015758D01*
X019032Y015758D02*
X009971Y015758D01*
X009972Y015759D02*
X009972Y016130D01*
X010291Y016130D01*
X010320Y016061D01*
X010463Y015918D01*
X010651Y015840D01*
X010854Y015840D01*
X011041Y015918D01*
X011185Y016061D01*
X011213Y016130D01*
X011291Y016130D01*
X011320Y016061D01*
X011463Y015918D01*
X011651Y015840D01*
X011854Y015840D01*
X012041Y015918D01*
X012185Y016061D01*
X012262Y016249D01*
X012262Y016451D01*
X012185Y016639D01*
X012041Y016782D01*
X011854Y016860D01*
X011651Y016860D01*
X011463Y016782D01*
X011320Y016639D01*
X011291Y016570D01*
X011213Y016570D01*
X011185Y016639D01*
X011041Y016782D01*
X010854Y016860D01*
X010651Y016860D01*
X010463Y016782D01*
X010320Y016639D01*
X010291Y016570D01*
X009197Y016570D01*
X008972Y016795D01*
X008972Y017165D01*
X009002Y017177D01*
X009125Y017301D01*
X009192Y017462D01*
X009192Y018238D01*
X009125Y018399D01*
X009002Y018523D01*
X008840Y018590D01*
X008665Y018590D01*
X008503Y018523D01*
X008379Y018399D01*
X008312Y018238D01*
X008312Y017462D01*
X008379Y017301D01*
X008503Y017177D01*
X008532Y017165D01*
X008532Y016612D01*
X008886Y016259D01*
X009015Y016130D01*
X009532Y016130D01*
X009532Y015941D01*
X009411Y015820D01*
X008713Y015820D01*
X008685Y015889D01*
X008541Y016032D01*
X008354Y016110D01*
X008151Y016110D01*
X007963Y016032D01*
X007820Y015889D01*
X007742Y015701D01*
X007742Y015499D01*
X007820Y015311D01*
X007963Y015168D01*
X008127Y015100D01*
X007963Y015032D01*
X007820Y014889D01*
X007742Y014701D01*
X007742Y014499D01*
X007820Y014311D01*
X007963Y014168D01*
X008006Y014150D01*
X007859Y014150D01*
X007813Y014138D01*
X007772Y014114D01*
X007738Y014081D01*
X007715Y014039D01*
X007702Y013994D01*
X007702Y013620D01*
X008232Y013620D01*
X008232Y013580D01*
X007702Y013580D01*
X007702Y013206D01*
X007715Y013161D01*
X007738Y013119D01*
X007772Y013086D01*
X007813Y013062D01*
X007859Y013050D01*
X008232Y013050D01*
X008232Y013580D01*
X008272Y013580D01*
X008272Y013050D01*
X008646Y013050D01*
X008692Y013062D01*
X008733Y013086D01*
X008766Y013119D01*
X008790Y013161D01*
X008802Y013206D01*
X008802Y013580D01*
X008272Y013580D01*
X008272Y013620D01*
X008802Y013620D01*
X008802Y013994D01*
X008790Y014039D01*
X008766Y014081D01*
X008733Y014114D01*
X008692Y014138D01*
X008646Y014150D01*
X008499Y014150D01*
X008541Y014168D01*
X008685Y014311D01*
X008762Y014499D01*
X008762Y014701D01*
X008685Y014889D01*
X008541Y015032D01*
X008378Y015100D01*
X008541Y015168D01*
X008685Y015311D01*
X008713Y015380D01*
X009593Y015380D01*
X009843Y015630D01*
X009972Y015759D01*
X009972Y015916D02*
X010467Y015916D01*
X010314Y016075D02*
X009972Y016075D01*
X009752Y015850D02*
X009752Y016350D01*
X009106Y016350D01*
X008752Y016704D01*
X008752Y017850D01*
X009192Y017818D02*
X009312Y017818D01*
X009312Y017660D02*
X009192Y017660D01*
X009192Y017501D02*
X009312Y017501D01*
X009312Y017462D02*
X009379Y017301D01*
X009503Y017177D01*
X009665Y017110D01*
X009840Y017110D01*
X010002Y017177D01*
X010125Y017301D01*
X010192Y017462D01*
X010192Y018238D01*
X010125Y018399D01*
X010002Y018523D01*
X009840Y018590D01*
X009665Y018590D01*
X009503Y018523D01*
X009379Y018399D01*
X009312Y018238D01*
X009312Y017462D01*
X009362Y017343D02*
X009143Y017343D01*
X009009Y017184D02*
X009496Y017184D01*
X010009Y017184D02*
X010496Y017184D01*
X010362Y017343D02*
X010143Y017343D01*
X010192Y017501D02*
X010312Y017501D01*
X010312Y017660D02*
X010192Y017660D01*
X010192Y017818D02*
X010312Y017818D01*
X010312Y017977D02*
X010192Y017977D01*
X010192Y018135D02*
X010312Y018135D01*
X010336Y018294D02*
X010169Y018294D01*
X010073Y018452D02*
X010432Y018452D01*
X010555Y018611D02*
X007888Y018611D01*
X007865Y018618D02*
X007790Y018630D01*
X007772Y018630D01*
X007772Y017870D01*
X007732Y017870D01*
X007732Y017830D01*
X007272Y017830D01*
X007272Y017512D01*
X007284Y017438D01*
X007308Y017366D01*
X007342Y017298D01*
X007386Y017237D01*
X007440Y017184D01*
X007501Y017139D01*
X007568Y017105D01*
X007640Y017082D01*
X007715Y017070D01*
X007732Y017070D01*
X007732Y017830D01*
X007772Y017830D01*
X007772Y017070D01*
X007790Y017070D01*
X007865Y017082D01*
X007937Y017105D01*
X008004Y017139D01*
X008065Y017184D01*
X008118Y017237D01*
X008163Y017298D01*
X008197Y017366D01*
X008221Y017438D01*
X008232Y017512D01*
X008232Y017830D01*
X007772Y017830D01*
X007772Y017870D01*
X008232Y017870D01*
X008232Y018188D01*
X008221Y018262D01*
X008197Y018334D01*
X008163Y018402D01*
X008118Y018463D01*
X008065Y018516D01*
X008004Y018561D01*
X007937Y018595D01*
X007865Y018618D01*
X007772Y018611D02*
X007732Y018611D01*
X007732Y018630D02*
X007715Y018630D01*
X007640Y018618D01*
X007568Y018595D01*
X007501Y018561D01*
X007440Y018516D01*
X007386Y018463D01*
X007342Y018402D01*
X007308Y018334D01*
X007284Y018262D01*
X007272Y018188D01*
X007272Y017870D01*
X007732Y017870D01*
X007732Y018630D01*
X007616Y018611D02*
X006252Y018611D01*
X006252Y018769D02*
X010714Y018769D01*
X010872Y018928D02*
X006252Y018928D01*
X006252Y019086D02*
X018677Y019086D01*
X018836Y019245D02*
X006252Y019245D01*
X006252Y019403D02*
X018994Y019403D01*
X019032Y019562D02*
X009059Y019562D01*
X009017Y019537D02*
X009165Y019623D01*
X009223Y019646D01*
X009245Y019669D01*
X009324Y019715D01*
X009414Y019838D01*
X009456Y019880D01*
X009471Y019917D01*
X009533Y020002D01*
X009533Y020002D01*
X009562Y020135D01*
X009582Y020185D01*
X009582Y020232D01*
X009607Y020350D01*
X009582Y020468D01*
X009582Y020515D01*
X009562Y020565D01*
X009533Y020698D01*
X009471Y020783D01*
X009456Y020820D01*
X009414Y020862D01*
X009324Y020985D01*
X009245Y021031D01*
X009223Y021054D01*
X009165Y021077D01*
X009017Y021163D01*
X009017Y021163D01*
X008938Y021171D01*
X008917Y021180D01*
X008856Y021180D01*
X008663Y021200D01*
X008600Y021180D01*
X008587Y021180D01*
X008539Y021160D01*
X008325Y021090D01*
X008285Y021055D01*
X008282Y021054D01*
X008266Y021038D01*
X008061Y020853D01*
X008061Y020853D01*
X007916Y020528D01*
X007916Y020172D01*
X008061Y019847D01*
X008266Y019662D01*
X008282Y019646D01*
X008285Y019645D01*
X008325Y019610D01*
X008539Y019540D01*
X008587Y019520D01*
X008600Y019520D01*
X008663Y019500D01*
X008856Y019520D01*
X008917Y019520D01*
X008938Y019529D01*
X009017Y019537D01*
X009017Y019537D01*
X009324Y019715D02*
X009324Y019715D01*
X009324Y019715D01*
X009328Y019720D02*
X019032Y019720D01*
X019032Y019879D02*
X018447Y019879D01*
X018661Y020037D02*
X018844Y020037D01*
X018764Y020196D02*
X018740Y020196D01*
X018737Y020513D02*
X018768Y020513D01*
X018852Y020671D02*
X018653Y020671D01*
X018427Y020830D02*
X019077Y020830D01*
X019427Y020830D02*
X019712Y020830D01*
X019653Y020671D02*
X019782Y020671D01*
X019782Y020513D02*
X019737Y020513D01*
X019762Y020354D02*
X019782Y020354D01*
X019782Y020196D02*
X019740Y020196D01*
X019782Y020037D02*
X019661Y020037D01*
X019782Y019879D02*
X019472Y019879D01*
X019472Y019720D02*
X019782Y019720D01*
X019782Y019562D02*
X019472Y019562D01*
X019472Y019403D02*
X019767Y019403D01*
X019648Y019245D02*
X019458Y019245D01*
X019529Y019086D02*
X019300Y019086D01*
X019411Y018928D02*
X019141Y018928D01*
X019292Y018769D02*
X018983Y018769D01*
X018752Y018850D02*
X019252Y019350D01*
X019252Y020350D01*
X019752Y021100D02*
X020002Y020850D01*
X020002Y019350D01*
X019252Y018350D01*
X019252Y014350D01*
X019252Y013600D01*
X019502Y013350D01*
X021252Y013350D01*
X020878Y013697D02*
X019472Y013697D01*
X019472Y013856D02*
X021113Y013856D01*
X021391Y013856D02*
X022787Y013856D01*
X022817Y014014D02*
X021638Y014014D01*
X021731Y014173D02*
X022917Y014173D01*
X022869Y014385D02*
X023635Y014385D01*
X023717Y014467D01*
X023717Y015130D01*
X024651Y015130D01*
X024653Y015123D01*
X024766Y015011D01*
X024913Y014950D01*
X025592Y014950D01*
X025739Y015011D01*
X025851Y015123D01*
X025912Y015270D01*
X025912Y015430D01*
X025851Y015577D01*
X025739Y015689D01*
X025592Y015750D01*
X024913Y015750D01*
X024766Y015689D01*
X024653Y015577D01*
X024651Y015570D01*
X023411Y015570D01*
X023282Y015441D01*
X023156Y015315D01*
X022869Y015315D01*
X022787Y015233D01*
X022787Y014467D01*
X022869Y014385D01*
X022787Y014490D02*
X021747Y014490D01*
X021762Y014331D02*
X024592Y014331D01*
X024617Y014490D02*
X023717Y014490D01*
X023717Y014648D02*
X024725Y014648D01*
X024876Y014965D02*
X023717Y014965D01*
X023717Y014807D02*
X025898Y014807D01*
X026032Y014965D02*
X025628Y014965D01*
X025852Y015124D02*
X026032Y015124D01*
X026032Y015282D02*
X025912Y015282D01*
X025908Y015441D02*
X026032Y015441D01*
X026032Y015599D02*
X025829Y015599D01*
X026032Y015758D02*
X020972Y015758D01*
X020972Y015599D02*
X024676Y015599D01*
X024653Y015124D02*
X023717Y015124D01*
X023502Y015350D02*
X025252Y015350D01*
X026032Y015916D02*
X021130Y015916D01*
X021288Y016075D02*
X026032Y016075D01*
X026032Y016233D02*
X022447Y016233D01*
X022605Y016392D02*
X026032Y016392D01*
X026032Y016550D02*
X022764Y016550D01*
X022922Y016709D02*
X026032Y016709D01*
X026032Y016867D02*
X022972Y016867D01*
X022972Y017026D02*
X025787Y017026D01*
X025787Y017184D02*
X023009Y017184D01*
X023143Y017343D02*
X025787Y017343D01*
X025787Y017501D02*
X023192Y017501D01*
X023192Y017660D02*
X025787Y017660D01*
X026252Y017350D02*
X026252Y014850D01*
X025752Y014350D01*
X025252Y014350D01*
X024763Y014014D02*
X023688Y014014D01*
X023587Y014173D02*
X024633Y014173D01*
X023502Y013350D02*
X023252Y013600D01*
X023252Y013850D01*
X022906Y013539D02*
X021726Y013539D01*
X021762Y013380D02*
X023161Y013380D01*
X022812Y013697D02*
X021627Y013697D01*
X020867Y014014D02*
X019472Y014014D01*
X019472Y014173D02*
X020774Y014173D01*
X020742Y014331D02*
X019472Y014331D01*
X019472Y014490D02*
X020758Y014490D01*
X020643Y014648D02*
X019472Y014648D01*
X019472Y014807D02*
X020532Y014807D01*
X020532Y014965D02*
X019472Y014965D01*
X019032Y014965D02*
X008609Y014965D01*
X008719Y014807D02*
X019032Y014807D01*
X019032Y014648D02*
X008762Y014648D01*
X008759Y014490D02*
X011934Y014490D01*
X012106Y014350D02*
X019252Y014350D01*
X019032Y014014D02*
X012081Y014014D01*
X011972Y013856D02*
X015140Y013856D01*
X015365Y013856D02*
X016140Y013856D01*
X016365Y013856D02*
X017140Y013856D01*
X017365Y013856D02*
X019032Y013856D01*
X019032Y013697D02*
X017627Y013697D01*
X017252Y013350D02*
X019002Y013350D01*
X019252Y013100D01*
X019252Y011850D01*
X018949Y012112D02*
X016556Y012112D01*
X016472Y012271D02*
X019032Y012271D01*
X019032Y012429D02*
X016472Y012429D01*
X016472Y012588D02*
X019032Y012588D01*
X019032Y012746D02*
X016472Y012746D01*
X016510Y012905D02*
X016995Y012905D01*
X016819Y013063D02*
X016686Y013063D01*
X016751Y013222D02*
X016754Y013222D01*
X016778Y013539D02*
X016726Y013539D01*
X016627Y013697D02*
X016878Y013697D01*
X016252Y013350D02*
X016252Y011850D01*
X016652Y011795D02*
X018852Y011795D01*
X018852Y011954D02*
X016652Y011954D01*
X016605Y011637D02*
X018900Y011637D01*
X019059Y011478D02*
X016446Y011478D01*
X016435Y011290D02*
X016252Y011290D01*
X016070Y011290D01*
X015812Y011032D01*
X015812Y010850D01*
X015812Y010668D01*
X016070Y010410D01*
X016252Y010410D01*
X016252Y010850D01*
X015812Y010850D01*
X016252Y010850D01*
X016252Y010850D01*
X016252Y011290D01*
X016252Y010850D01*
X016252Y010850D01*
X016252Y010850D01*
X016252Y010410D01*
X016435Y010410D01*
X016692Y010668D01*
X016692Y010850D01*
X016692Y011032D01*
X016435Y011290D01*
X016564Y011161D02*
X018941Y011161D01*
X018812Y011003D02*
X016692Y011003D01*
X016692Y010850D02*
X016252Y010850D01*
X016252Y010850D01*
X016692Y010850D01*
X016692Y010844D02*
X018812Y010844D01*
X018812Y010686D02*
X016692Y010686D01*
X016552Y010527D02*
X018953Y010527D01*
X019252Y010527D02*
X019252Y010527D01*
X019252Y010686D02*
X019252Y010686D01*
X019252Y010844D02*
X019252Y010844D01*
X019252Y010850D02*
X019252Y010850D01*
X019692Y010850D01*
X019252Y010850D01*
X019252Y011003D02*
X019252Y011003D01*
X019252Y011161D02*
X019252Y011161D01*
X019446Y011478D02*
X022802Y011478D01*
X022787Y011320D02*
X006252Y011320D01*
X006252Y011478D02*
X010059Y011478D01*
X010070Y011290D02*
X009812Y011032D01*
X009812Y010850D01*
X009812Y010668D01*
X010070Y010410D01*
X010252Y010410D01*
X010252Y010850D01*
X009812Y010850D01*
X010252Y010850D01*
X010252Y010850D01*
X010252Y011290D01*
X010070Y011290D01*
X009941Y011161D02*
X006252Y011161D01*
X006252Y011003D02*
X009812Y011003D01*
X009812Y010844D02*
X006252Y010844D01*
X006252Y010686D02*
X009812Y010686D01*
X009953Y010527D02*
X006252Y010527D01*
X006252Y010369D02*
X023210Y010369D01*
X023368Y010527D02*
X019552Y010527D01*
X019692Y011003D02*
X022942Y011003D01*
X022827Y011161D02*
X019564Y011161D01*
X019605Y011637D02*
X022881Y011637D01*
X023112Y011795D02*
X019652Y011795D01*
X019652Y011954D02*
X020871Y011954D01*
X020756Y012112D02*
X019556Y012112D01*
X019472Y012271D02*
X020708Y012271D01*
X020708Y012429D02*
X019472Y012429D01*
X019472Y012588D02*
X020756Y012588D01*
X020871Y012746D02*
X019472Y012746D01*
X019472Y012905D02*
X020995Y012905D01*
X020819Y013063D02*
X019472Y013063D01*
X019032Y012905D02*
X017510Y012905D01*
X017686Y013063D02*
X018978Y013063D01*
X021252Y012350D02*
X021802Y012350D01*
X021252Y012350D01*
X021252Y012350D01*
X021252Y012271D02*
X021252Y012271D01*
X021252Y012112D02*
X021252Y012112D01*
X021252Y011954D02*
X021252Y011954D01*
X021634Y011954D02*
X022801Y011954D01*
X022787Y012112D02*
X021748Y012112D01*
X021797Y012271D02*
X022787Y012271D01*
X022787Y012429D02*
X021797Y012429D01*
X021749Y012588D02*
X022787Y012588D01*
X022800Y012746D02*
X021634Y012746D01*
X021510Y012905D02*
X026532Y012905D01*
X026972Y012905D02*
X029752Y012905D01*
X029752Y013063D02*
X028791Y013063D01*
X028892Y013222D02*
X029752Y013222D01*
X029752Y013380D02*
X028912Y013380D01*
X028867Y013539D02*
X029752Y013539D01*
X029752Y013697D02*
X028720Y013697D01*
X028252Y014014D02*
X028252Y014014D01*
X028252Y014173D02*
X028252Y014173D01*
X028252Y014331D02*
X028252Y014331D01*
X028252Y014350D02*
X028252Y014350D01*
X028252Y014490D02*
X028252Y014490D01*
X028252Y014648D02*
X028252Y014648D01*
X027668Y014648D02*
X026362Y014648D01*
X028252Y015350D02*
X028252Y016850D01*
X027752Y017350D01*
X027912Y017501D02*
X028752Y017501D01*
X028752Y017343D02*
X028071Y017343D01*
X028229Y017184D02*
X028752Y017184D01*
X028752Y017026D02*
X028388Y017026D01*
X028472Y016867D02*
X028752Y016867D01*
X028752Y016709D02*
X028472Y016709D01*
X028472Y016550D02*
X028752Y016550D01*
X028752Y016392D02*
X028472Y016392D01*
X028472Y016233D02*
X028869Y016233D01*
X029028Y016075D02*
X028472Y016075D01*
X028472Y015916D02*
X029186Y015916D01*
X029345Y015758D02*
X028472Y015758D01*
X028829Y015599D02*
X029503Y015599D01*
X029662Y015441D02*
X028908Y015441D01*
X028912Y015282D02*
X029752Y015282D01*
X029752Y015124D02*
X028852Y015124D01*
X026919Y017026D02*
X026717Y017026D01*
X026717Y017184D02*
X026818Y017184D01*
X026787Y017343D02*
X026717Y017343D01*
X026717Y017501D02*
X026812Y017501D01*
X026904Y017660D02*
X026717Y017660D01*
X027032Y017818D02*
X023192Y017818D01*
X023192Y017977D02*
X027032Y017977D01*
X027032Y018135D02*
X023192Y018135D01*
X023169Y018294D02*
X027032Y018294D01*
X027032Y018452D02*
X023073Y018452D01*
X022432Y018452D02*
X022073Y018452D01*
X022169Y018294D02*
X022336Y018294D01*
X022312Y018135D02*
X022192Y018135D01*
X022192Y017977D02*
X022312Y017977D01*
X022312Y017818D02*
X022192Y017818D01*
X022192Y017660D02*
X022312Y017660D01*
X022312Y017501D02*
X022192Y017501D01*
X022143Y017343D02*
X022362Y017343D01*
X022496Y017184D02*
X022009Y017184D01*
X021739Y017026D02*
X022532Y017026D01*
X022458Y016867D02*
X021581Y016867D01*
X021422Y016709D02*
X022300Y016709D01*
X022252Y016350D02*
X022752Y016850D01*
X022752Y017850D01*
X021972Y018611D02*
X027032Y018611D01*
X027022Y018769D02*
X021983Y018769D01*
X022141Y018928D02*
X026864Y018928D01*
X026705Y019086D02*
X022300Y019086D01*
X021994Y019403D02*
X020222Y019403D01*
X020222Y019562D02*
X022153Y019562D01*
X022032Y019441D02*
X022032Y019441D01*
X021836Y019245D02*
X020208Y019245D01*
X020079Y019086D02*
X021677Y019086D01*
X021532Y018928D02*
X019961Y018928D01*
X019842Y018769D02*
X021532Y018769D01*
X021532Y018611D02*
X019723Y018611D01*
X020073Y018452D02*
X020432Y018452D01*
X020379Y018399D02*
X020312Y018238D01*
X020312Y017462D01*
X020379Y017301D01*
X020503Y017177D01*
X020665Y017110D01*
X020840Y017110D01*
X021002Y017177D01*
X021125Y017301D01*
X021192Y017462D01*
X021192Y018238D01*
X021125Y018399D01*
X021002Y018523D01*
X020840Y018590D01*
X020665Y018590D01*
X020503Y018523D01*
X020379Y018399D01*
X020336Y018294D02*
X020169Y018294D01*
X020192Y018135D02*
X020312Y018135D01*
X020312Y017977D02*
X020192Y017977D01*
X020192Y017818D02*
X020312Y017818D01*
X020312Y017660D02*
X020192Y017660D01*
X020192Y017501D02*
X020312Y017501D01*
X020362Y017343D02*
X020143Y017343D01*
X020009Y017184D02*
X020496Y017184D01*
X021009Y017184D02*
X021275Y017184D01*
X021362Y017343D02*
X021143Y017343D01*
X021192Y017501D02*
X021312Y017501D01*
X021312Y017660D02*
X021192Y017660D01*
X021192Y017818D02*
X021312Y017818D01*
X021312Y017977D02*
X021192Y017977D01*
X021192Y018135D02*
X021312Y018135D01*
X021336Y018294D02*
X021169Y018294D01*
X021073Y018452D02*
X021432Y018452D01*
X021651Y019840D02*
X021854Y019840D01*
X022041Y019918D01*
X022185Y020061D01*
X022252Y020224D01*
X022320Y020061D01*
X022463Y019918D01*
X022651Y019840D01*
X022854Y019840D01*
X023041Y019918D01*
X023185Y020061D01*
X023252Y020224D01*
X023320Y020061D01*
X023463Y019918D01*
X023651Y019840D01*
X023854Y019840D01*
X024041Y019918D01*
X024185Y020061D01*
X024252Y020224D01*
X024320Y020061D01*
X024463Y019918D01*
X024651Y019840D01*
X024854Y019840D01*
X025041Y019918D01*
X025185Y020061D01*
X025252Y020224D01*
X025320Y020061D01*
X025463Y019918D01*
X025651Y019840D01*
X025854Y019840D01*
X026041Y019918D01*
X026185Y020061D01*
X026252Y020224D01*
X026320Y020061D01*
X026463Y019918D01*
X026651Y019840D01*
X026854Y019840D01*
X027041Y019918D01*
X027185Y020061D01*
X027252Y020224D01*
X027320Y020061D01*
X027463Y019918D01*
X027651Y019840D01*
X027854Y019840D01*
X028041Y019918D01*
X028185Y020061D01*
X028262Y020249D01*
X028262Y020451D01*
X028185Y020639D01*
X028041Y020782D01*
X027854Y020860D01*
X027651Y020860D01*
X027463Y020782D01*
X027320Y020639D01*
X027252Y020476D01*
X027185Y020639D01*
X027041Y020782D01*
X026854Y020860D01*
X026651Y020860D01*
X026463Y020782D01*
X026320Y020639D01*
X026252Y020476D01*
X026185Y020639D01*
X026041Y020782D01*
X025854Y020860D01*
X025651Y020860D01*
X025463Y020782D01*
X025320Y020639D01*
X025252Y020476D01*
X025185Y020639D01*
X025041Y020782D01*
X024854Y020860D01*
X024651Y020860D01*
X024463Y020782D01*
X024320Y020639D01*
X024252Y020476D01*
X024185Y020639D01*
X024041Y020782D01*
X023854Y020860D01*
X023651Y020860D01*
X023463Y020782D01*
X023320Y020639D01*
X023252Y020476D01*
X023185Y020639D01*
X023041Y020782D01*
X022854Y020860D01*
X022651Y020860D01*
X022463Y020782D01*
X022320Y020639D01*
X022252Y020476D01*
X022185Y020639D01*
X022041Y020782D01*
X021854Y020860D01*
X021651Y020860D01*
X021463Y020782D01*
X021320Y020639D01*
X021252Y020476D01*
X021185Y020639D01*
X021041Y020782D01*
X020854Y020860D01*
X020651Y020860D01*
X020463Y020782D01*
X020320Y020639D01*
X020242Y020451D01*
X020242Y020249D01*
X020320Y020061D01*
X020463Y019918D01*
X020651Y019840D01*
X020854Y019840D01*
X021041Y019918D01*
X021185Y020061D01*
X021252Y020224D01*
X021320Y020061D01*
X021463Y019918D01*
X021651Y019840D01*
X021558Y019879D02*
X020947Y019879D01*
X021161Y020037D02*
X021344Y020037D01*
X021264Y020196D02*
X021240Y020196D01*
X021237Y020513D02*
X021268Y020513D01*
X021352Y020671D02*
X021153Y020671D01*
X020927Y020830D02*
X021577Y020830D01*
X021927Y020830D02*
X022577Y020830D01*
X022352Y020671D02*
X022153Y020671D01*
X022237Y020513D02*
X022268Y020513D01*
X022264Y020196D02*
X022240Y020196D01*
X022161Y020037D02*
X022344Y020037D01*
X022558Y019879D02*
X021947Y019879D01*
X022947Y019879D02*
X023558Y019879D01*
X023344Y020037D02*
X023161Y020037D01*
X023240Y020196D02*
X023264Y020196D01*
X023268Y020513D02*
X023237Y020513D01*
X023153Y020671D02*
X023352Y020671D01*
X023577Y020830D02*
X022927Y020830D01*
X023927Y020830D02*
X024577Y020830D01*
X024352Y020671D02*
X024153Y020671D01*
X024237Y020513D02*
X024268Y020513D01*
X024264Y020196D02*
X024240Y020196D01*
X024161Y020037D02*
X024344Y020037D01*
X024558Y019879D02*
X023947Y019879D01*
X024947Y019879D02*
X025558Y019879D01*
X025344Y020037D02*
X025161Y020037D01*
X025240Y020196D02*
X025264Y020196D01*
X025268Y020513D02*
X025237Y020513D01*
X025153Y020671D02*
X025352Y020671D01*
X025577Y020830D02*
X024927Y020830D01*
X025927Y020830D02*
X026577Y020830D01*
X026352Y020671D02*
X026153Y020671D01*
X026237Y020513D02*
X026268Y020513D01*
X026264Y020196D02*
X026240Y020196D01*
X026161Y020037D02*
X026344Y020037D01*
X026558Y019879D02*
X025947Y019879D01*
X026852Y019562D02*
X028752Y019562D01*
X028752Y019720D02*
X020222Y019720D01*
X020222Y019879D02*
X020558Y019879D01*
X020344Y020037D02*
X020222Y020037D01*
X020222Y020196D02*
X020264Y020196D01*
X020242Y020354D02*
X020222Y020354D01*
X020222Y020513D02*
X020268Y020513D01*
X020222Y020671D02*
X020352Y020671D01*
X020222Y020830D02*
X020577Y020830D01*
X020175Y020988D02*
X028614Y020988D01*
X028752Y020830D02*
X027927Y020830D01*
X028153Y020671D02*
X028752Y020671D01*
X028752Y020513D02*
X028237Y020513D01*
X028262Y020354D02*
X028752Y020354D01*
X028752Y020196D02*
X028240Y020196D01*
X028161Y020037D02*
X028752Y020037D01*
X028752Y019879D02*
X027947Y019879D01*
X027558Y019879D02*
X026947Y019879D01*
X027161Y020037D02*
X027344Y020037D01*
X027264Y020196D02*
X027240Y020196D01*
X027237Y020513D02*
X027268Y020513D01*
X027352Y020671D02*
X027153Y020671D01*
X026927Y020830D02*
X027577Y020830D01*
X028456Y021147D02*
X020017Y021147D01*
X019752Y021100D02*
X017502Y021100D01*
X017252Y020850D01*
X017252Y020350D01*
X017737Y020513D02*
X017768Y020513D01*
X017852Y020671D02*
X017653Y020671D01*
X017543Y020830D02*
X018077Y020830D01*
X017764Y020196D02*
X017740Y020196D01*
X017661Y020037D02*
X017844Y020037D01*
X018058Y019879D02*
X017447Y019879D01*
X017058Y019879D02*
X016447Y019879D01*
X016661Y020037D02*
X016844Y020037D01*
X016764Y020196D02*
X016740Y020196D01*
X016737Y020513D02*
X016768Y020513D01*
X016852Y020671D02*
X016653Y020671D01*
X016427Y020830D02*
X017032Y020830D01*
X017079Y020988D02*
X009320Y020988D01*
X009324Y020985D02*
X009324Y020985D01*
X009324Y020985D01*
X009447Y020830D02*
X012077Y020830D01*
X011852Y020671D02*
X009539Y020671D01*
X009533Y020698D02*
X009533Y020698D01*
X009582Y020513D02*
X011768Y020513D01*
X011742Y020354D02*
X009606Y020354D01*
X009582Y020196D02*
X011764Y020196D01*
X011844Y020037D02*
X009541Y020037D01*
X009455Y019879D02*
X012058Y019879D01*
X012447Y019879D02*
X012966Y019879D01*
X012800Y020037D02*
X012661Y020037D01*
X013232Y020037D02*
X013272Y020037D01*
X013272Y019879D02*
X013232Y019879D01*
X013539Y019879D02*
X014058Y019879D01*
X013844Y020037D02*
X013705Y020037D01*
X013272Y020196D02*
X013232Y020196D01*
X013232Y020513D02*
X013272Y020513D01*
X013272Y020671D02*
X013232Y020671D01*
X013232Y020830D02*
X013272Y020830D01*
X013523Y020830D02*
X014077Y020830D01*
X013852Y020671D02*
X013699Y020671D01*
X012982Y020830D02*
X012427Y020830D01*
X012653Y020671D02*
X012806Y020671D01*
X014427Y020830D02*
X015077Y020830D01*
X014852Y020671D02*
X014653Y020671D01*
X014737Y020513D02*
X014768Y020513D01*
X014764Y020196D02*
X014740Y020196D01*
X014661Y020037D02*
X014844Y020037D01*
X015058Y019879D02*
X014447Y019879D01*
X015447Y019879D02*
X016058Y019879D01*
X015844Y020037D02*
X015661Y020037D01*
X015740Y020196D02*
X015764Y020196D01*
X015768Y020513D02*
X015737Y020513D01*
X015653Y020671D02*
X015852Y020671D01*
X016077Y020830D02*
X015427Y020830D01*
X017238Y021147D02*
X009045Y021147D01*
X008663Y021200D02*
X008663Y021200D01*
X008498Y021147D02*
X007049Y021147D01*
X006890Y020988D02*
X008211Y020988D01*
X008325Y021090D02*
X008325Y021090D01*
X008050Y020830D02*
X006732Y020830D01*
X006573Y020671D02*
X007980Y020671D01*
X007916Y020513D02*
X006415Y020513D01*
X006256Y020354D02*
X007916Y020354D01*
X007916Y020196D02*
X006252Y020196D01*
X006252Y020037D02*
X007976Y020037D01*
X008047Y019879D02*
X006252Y019879D01*
X006252Y019720D02*
X008202Y019720D01*
X008325Y019610D02*
X008325Y019610D01*
X008473Y019562D02*
X006252Y019562D01*
X006252Y018452D02*
X007379Y018452D01*
X007294Y018294D02*
X006252Y018294D01*
X006252Y018135D02*
X007272Y018135D01*
X007272Y017977D02*
X006252Y017977D01*
X006252Y017818D02*
X007272Y017818D01*
X007272Y017660D02*
X006252Y017660D01*
X006252Y017501D02*
X007274Y017501D01*
X007319Y017343D02*
X006252Y017343D01*
X006252Y017184D02*
X007439Y017184D01*
X007732Y017184D02*
X007772Y017184D01*
X007772Y017343D02*
X007732Y017343D01*
X007732Y017501D02*
X007772Y017501D01*
X007772Y017660D02*
X007732Y017660D01*
X007732Y017818D02*
X007772Y017818D01*
X007772Y017977D02*
X007732Y017977D01*
X007732Y018135D02*
X007772Y018135D01*
X007772Y018294D02*
X007732Y018294D01*
X007732Y018452D02*
X007772Y018452D01*
X008126Y018452D02*
X008432Y018452D01*
X008336Y018294D02*
X008210Y018294D01*
X008232Y018135D02*
X008312Y018135D01*
X008312Y017977D02*
X008232Y017977D01*
X008232Y017818D02*
X008312Y017818D01*
X008312Y017660D02*
X008232Y017660D01*
X008231Y017501D02*
X008312Y017501D01*
X008362Y017343D02*
X008185Y017343D01*
X008065Y017184D02*
X008496Y017184D01*
X008532Y017026D02*
X006252Y017026D01*
X006252Y016867D02*
X008532Y016867D01*
X008532Y016709D02*
X006252Y016709D01*
X006252Y016550D02*
X008595Y016550D01*
X008753Y016392D02*
X006252Y016392D01*
X006252Y016233D02*
X008912Y016233D01*
X008439Y016075D02*
X009532Y016075D01*
X009507Y015916D02*
X008658Y015916D01*
X008252Y015600D02*
X009502Y015600D01*
X009752Y015850D01*
X009813Y015599D02*
X019032Y015599D01*
X019032Y015441D02*
X009654Y015441D01*
X009752Y016350D02*
X010752Y016350D01*
X011752Y016350D01*
X012222Y016550D02*
X014783Y016550D01*
X014820Y016639D02*
X014742Y016451D01*
X014742Y016249D01*
X014820Y016061D01*
X014963Y015918D01*
X015151Y015840D01*
X015354Y015840D01*
X015541Y015918D01*
X015685Y016061D01*
X015752Y016224D01*
X015820Y016061D01*
X015963Y015918D01*
X016151Y015840D01*
X016354Y015840D01*
X016541Y015918D01*
X016685Y016061D01*
X016752Y016224D01*
X016820Y016061D01*
X016963Y015918D01*
X017151Y015840D01*
X017354Y015840D01*
X017541Y015918D01*
X017685Y016061D01*
X017762Y016249D01*
X017762Y016451D01*
X017685Y016639D01*
X017541Y016782D01*
X017354Y016860D01*
X017151Y016860D01*
X016963Y016782D01*
X016820Y016639D01*
X016752Y016476D01*
X016685Y016639D01*
X016541Y016782D01*
X016354Y016860D01*
X016151Y016860D01*
X015963Y016782D01*
X015820Y016639D01*
X015752Y016476D01*
X015685Y016639D01*
X015541Y016782D01*
X015354Y016860D01*
X015151Y016860D01*
X014963Y016782D01*
X014820Y016639D01*
X014890Y016709D02*
X012115Y016709D01*
X012262Y016392D02*
X014742Y016392D01*
X014749Y016233D02*
X012256Y016233D01*
X012190Y016075D02*
X014814Y016075D01*
X014967Y015916D02*
X012037Y015916D01*
X011467Y015916D02*
X011037Y015916D01*
X011190Y016075D02*
X011314Y016075D01*
X011390Y016709D02*
X011115Y016709D01*
X011009Y017184D02*
X011439Y017184D01*
X011440Y017184D02*
X011501Y017139D01*
X011568Y017105D01*
X011640Y017082D01*
X011715Y017070D01*
X011732Y017070D01*
X011732Y017830D01*
X011272Y017830D01*
X011272Y017512D01*
X011284Y017438D01*
X011308Y017366D01*
X011342Y017298D01*
X011386Y017237D01*
X011440Y017184D01*
X011319Y017343D02*
X011143Y017343D01*
X011192Y017501D02*
X011274Y017501D01*
X011272Y017660D02*
X011192Y017660D01*
X011192Y017818D02*
X011272Y017818D01*
X011272Y017870D02*
X011732Y017870D01*
X011732Y017830D01*
X011772Y017830D01*
X011772Y017070D01*
X011790Y017070D01*
X011865Y017082D01*
X011937Y017105D01*
X012004Y017139D01*
X012065Y017184D01*
X012118Y017237D01*
X012163Y017298D01*
X012197Y017366D01*
X012221Y017438D01*
X012232Y017512D01*
X012232Y017830D01*
X011772Y017830D01*
X011772Y017870D01*
X011732Y017870D01*
X011732Y018630D01*
X011715Y018630D01*
X011640Y018618D01*
X011568Y018595D01*
X011501Y018561D01*
X011440Y018516D01*
X011386Y018463D01*
X011342Y018402D01*
X011308Y018334D01*
X011284Y018262D01*
X011272Y018188D01*
X011272Y017870D01*
X011272Y017977D02*
X011192Y017977D01*
X011192Y018135D02*
X011272Y018135D01*
X011294Y018294D02*
X011169Y018294D01*
X011073Y018452D02*
X011379Y018452D01*
X011178Y018611D02*
X011616Y018611D01*
X011732Y018611D02*
X011772Y018611D01*
X011772Y018630D02*
X011772Y017870D01*
X012232Y017870D01*
X012232Y018188D01*
X012221Y018262D01*
X012197Y018334D01*
X012163Y018402D01*
X012118Y018463D01*
X012065Y018516D01*
X012004Y018561D01*
X011937Y018595D01*
X011865Y018618D01*
X011790Y018630D01*
X011772Y018630D01*
X011888Y018611D02*
X019173Y018611D01*
X018752Y018850D02*
X011106Y018850D01*
X010752Y018496D01*
X010752Y017850D01*
X011732Y017818D02*
X011772Y017818D01*
X011772Y017660D02*
X011732Y017660D01*
X011732Y017501D02*
X011772Y017501D01*
X011772Y017343D02*
X011732Y017343D01*
X011732Y017184D02*
X011772Y017184D01*
X012065Y017184D02*
X012496Y017184D01*
X012503Y017177D02*
X012665Y017110D01*
X012840Y017110D01*
X013002Y017177D01*
X013125Y017301D01*
X013192Y017462D01*
X013192Y018238D01*
X013125Y018399D01*
X013002Y018523D01*
X012840Y018590D01*
X012665Y018590D01*
X012503Y018523D01*
X012379Y018399D01*
X012312Y018238D01*
X012312Y017462D01*
X012379Y017301D01*
X012503Y017177D01*
X012362Y017343D02*
X012185Y017343D01*
X012231Y017501D02*
X012312Y017501D01*
X012312Y017660D02*
X012232Y017660D01*
X012232Y017818D02*
X012312Y017818D01*
X012312Y017977D02*
X012232Y017977D01*
X012232Y018135D02*
X012312Y018135D01*
X012336Y018294D02*
X012210Y018294D01*
X012126Y018452D02*
X012432Y018452D01*
X013073Y018452D02*
X013432Y018452D01*
X013379Y018399D02*
X013312Y018238D01*
X013312Y017462D01*
X013379Y017301D01*
X013503Y017177D01*
X013665Y017110D01*
X013840Y017110D01*
X014002Y017177D01*
X014125Y017301D01*
X014192Y017462D01*
X014192Y018238D01*
X014125Y018399D01*
X014002Y018523D01*
X013840Y018590D01*
X013665Y018590D01*
X013503Y018523D01*
X013379Y018399D01*
X013336Y018294D02*
X013169Y018294D01*
X013192Y018135D02*
X013312Y018135D01*
X013312Y017977D02*
X013192Y017977D01*
X013192Y017818D02*
X013312Y017818D01*
X013312Y017660D02*
X013192Y017660D01*
X013192Y017501D02*
X013312Y017501D01*
X013362Y017343D02*
X013143Y017343D01*
X013009Y017184D02*
X013496Y017184D01*
X014009Y017184D02*
X014496Y017184D01*
X014503Y017177D02*
X014665Y017110D01*
X014840Y017110D01*
X015002Y017177D01*
X015125Y017301D01*
X015192Y017462D01*
X015192Y018238D01*
X015125Y018399D01*
X015002Y018523D01*
X014840Y018590D01*
X014665Y018590D01*
X014503Y018523D01*
X014379Y018399D01*
X014312Y018238D01*
X014312Y017462D01*
X014379Y017301D01*
X014503Y017177D01*
X014362Y017343D02*
X014143Y017343D01*
X014192Y017501D02*
X014312Y017501D01*
X014312Y017660D02*
X014192Y017660D01*
X014192Y017818D02*
X014312Y017818D01*
X014312Y017977D02*
X014192Y017977D01*
X014192Y018135D02*
X014312Y018135D01*
X014336Y018294D02*
X014169Y018294D01*
X014073Y018452D02*
X014432Y018452D01*
X015073Y018452D02*
X015432Y018452D01*
X015379Y018399D02*
X015312Y018238D01*
X015312Y017462D01*
X015379Y017301D01*
X015503Y017177D01*
X015665Y017110D01*
X015840Y017110D01*
X016002Y017177D01*
X016125Y017301D01*
X016192Y017462D01*
X016192Y018238D01*
X016125Y018399D01*
X016002Y018523D01*
X015840Y018590D01*
X015665Y018590D01*
X015503Y018523D01*
X015379Y018399D01*
X015336Y018294D02*
X015169Y018294D01*
X015192Y018135D02*
X015312Y018135D01*
X015312Y017977D02*
X015192Y017977D01*
X015192Y017818D02*
X015312Y017818D01*
X015312Y017660D02*
X015192Y017660D01*
X015192Y017501D02*
X015312Y017501D01*
X015362Y017343D02*
X015143Y017343D01*
X015009Y017184D02*
X015496Y017184D01*
X015615Y016709D02*
X015890Y016709D01*
X015783Y016550D02*
X015722Y016550D01*
X015690Y016075D02*
X015814Y016075D01*
X015967Y015916D02*
X015537Y015916D01*
X016537Y015916D02*
X016967Y015916D01*
X016814Y016075D02*
X016690Y016075D01*
X016722Y016550D02*
X016783Y016550D01*
X016890Y016709D02*
X016615Y016709D01*
X016665Y017110D02*
X016503Y017177D01*
X016379Y017301D01*
X016312Y017462D01*
X016312Y018238D01*
X016379Y018399D01*
X016503Y018523D01*
X016665Y018590D01*
X016840Y018590D01*
X017002Y018523D01*
X017125Y018399D01*
X017192Y018238D01*
X017192Y017462D01*
X017125Y017301D01*
X017002Y017177D01*
X016840Y017110D01*
X016665Y017110D01*
X016496Y017184D02*
X016009Y017184D01*
X016143Y017343D02*
X016362Y017343D01*
X016312Y017501D02*
X016192Y017501D01*
X016192Y017660D02*
X016312Y017660D01*
X016312Y017818D02*
X016192Y017818D01*
X016192Y017977D02*
X016312Y017977D01*
X016312Y018135D02*
X016192Y018135D01*
X016169Y018294D02*
X016336Y018294D01*
X016432Y018452D02*
X016073Y018452D01*
X017073Y018452D02*
X017432Y018452D01*
X017379Y018399D02*
X017312Y018238D01*
X017312Y017462D01*
X017379Y017301D01*
X017503Y017177D01*
X017665Y017110D01*
X017840Y017110D01*
X018002Y017177D01*
X018125Y017301D01*
X018192Y017462D01*
X018192Y018238D01*
X018125Y018399D01*
X018002Y018523D01*
X017840Y018590D01*
X017665Y018590D01*
X017503Y018523D01*
X017379Y018399D01*
X017336Y018294D02*
X017169Y018294D01*
X017192Y018135D02*
X017312Y018135D01*
X017312Y017977D02*
X017192Y017977D01*
X017192Y017818D02*
X017312Y017818D01*
X017312Y017660D02*
X017192Y017660D01*
X017192Y017501D02*
X017312Y017501D01*
X017362Y017343D02*
X017143Y017343D01*
X017009Y017184D02*
X017496Y017184D01*
X018009Y017184D02*
X018496Y017184D01*
X018362Y017343D02*
X018143Y017343D01*
X018192Y017501D02*
X018312Y017501D01*
X018312Y017660D02*
X018192Y017660D01*
X018192Y017818D02*
X018312Y017818D01*
X018312Y017977D02*
X018192Y017977D01*
X018192Y018135D02*
X018312Y018135D01*
X018336Y018294D02*
X018169Y018294D01*
X018073Y018452D02*
X018432Y018452D01*
X019009Y017184D02*
X019032Y017184D01*
X019032Y017026D02*
X008972Y017026D01*
X008972Y016867D02*
X019032Y016867D01*
X019032Y016709D02*
X017615Y016709D01*
X017722Y016550D02*
X019032Y016550D01*
X019032Y016392D02*
X017762Y016392D01*
X017756Y016233D02*
X019032Y016233D01*
X019032Y016075D02*
X017690Y016075D01*
X017537Y015916D02*
X019032Y015916D01*
X019032Y015282D02*
X008656Y015282D01*
X008435Y015124D02*
X019032Y015124D01*
X020752Y014850D02*
X021252Y014350D01*
X021483Y014807D02*
X022787Y014807D01*
X022787Y014965D02*
X020972Y014965D01*
X020972Y015124D02*
X022787Y015124D01*
X022836Y015282D02*
X020972Y015282D01*
X020972Y015441D02*
X023282Y015441D01*
X023502Y015350D02*
X023252Y015100D01*
X023252Y014850D01*
X022787Y014648D02*
X021676Y014648D01*
X020752Y014850D02*
X020752Y015850D01*
X021252Y016350D01*
X022252Y016350D01*
X020117Y017026D02*
X019472Y017026D01*
X019472Y017184D02*
X019496Y017184D01*
X015878Y013697D02*
X015627Y013697D01*
X015726Y013539D02*
X015778Y013539D01*
X015754Y013222D02*
X015751Y013222D01*
X015686Y013063D02*
X015819Y013063D01*
X015995Y012905D02*
X015510Y012905D01*
X015252Y013350D02*
X013502Y013350D01*
X013252Y013100D01*
X013252Y011850D01*
X012949Y012112D02*
X010556Y012112D01*
X010472Y012271D02*
X013032Y012271D01*
X013032Y012429D02*
X010472Y012429D01*
X010472Y012588D02*
X013032Y012588D01*
X013032Y012746D02*
X010472Y012746D01*
X010472Y012905D02*
X010495Y012905D01*
X010252Y012996D02*
X010252Y011850D01*
X009949Y012112D02*
X006252Y012112D01*
X006252Y011954D02*
X009852Y011954D01*
X009852Y011795D02*
X006252Y011795D01*
X006252Y011637D02*
X009900Y011637D01*
X010252Y011290D02*
X010252Y010850D01*
X010252Y010850D01*
X010252Y010850D01*
X010252Y010410D01*
X010435Y010410D01*
X010692Y010668D01*
X010692Y010850D01*
X010692Y011032D01*
X010435Y011290D01*
X010252Y011290D01*
X010252Y011161D02*
X010252Y011161D01*
X010252Y011003D02*
X010252Y011003D01*
X010252Y010850D02*
X010692Y010850D01*
X010252Y010850D01*
X010252Y010850D01*
X010252Y010844D02*
X010252Y010844D01*
X010252Y010686D02*
X010252Y010686D01*
X010252Y010527D02*
X010252Y010527D01*
X010552Y010527D02*
X012953Y010527D01*
X013070Y010410D02*
X012812Y010668D01*
X012812Y010850D01*
X013252Y010850D01*
X013252Y010850D01*
X012812Y010850D01*
X012812Y011032D01*
X013070Y011290D01*
X013252Y011290D01*
X013252Y010850D01*
X013252Y010850D01*
X013252Y010850D01*
X013252Y010410D01*
X013070Y010410D01*
X013252Y010410D02*
X013435Y010410D01*
X013692Y010668D01*
X013692Y010850D01*
X013692Y011032D01*
X013435Y011290D01*
X013252Y011290D01*
X013252Y010850D01*
X013252Y010410D01*
X013252Y010527D02*
X013252Y010527D01*
X013252Y010686D02*
X013252Y010686D01*
X013252Y010844D02*
X013252Y010844D01*
X013252Y010850D02*
X013252Y010850D01*
X013692Y010850D01*
X013252Y010850D01*
X013252Y011003D02*
X013252Y011003D01*
X013252Y011161D02*
X013252Y011161D01*
X012941Y011161D02*
X010564Y011161D01*
X010692Y011003D02*
X012812Y011003D01*
X012812Y010844D02*
X010692Y010844D01*
X010692Y010686D02*
X012812Y010686D01*
X013552Y010527D02*
X015953Y010527D01*
X015812Y010686D02*
X013692Y010686D01*
X013692Y010844D02*
X015812Y010844D01*
X015812Y011003D02*
X013692Y011003D01*
X013564Y011161D02*
X015941Y011161D01*
X016059Y011478D02*
X013446Y011478D01*
X013605Y011637D02*
X015900Y011637D01*
X015852Y011795D02*
X013652Y011795D01*
X013652Y011954D02*
X015852Y011954D01*
X015949Y012112D02*
X013556Y012112D01*
X013472Y012271D02*
X016032Y012271D01*
X016032Y012429D02*
X013472Y012429D01*
X013472Y012588D02*
X016032Y012588D01*
X016032Y012746D02*
X013472Y012746D01*
X013472Y012905D02*
X014995Y012905D01*
X014819Y013063D02*
X013527Y013063D01*
X013063Y013222D02*
X012251Y013222D01*
X012262Y013380D02*
X013221Y013380D01*
X013380Y013539D02*
X012226Y013539D01*
X012127Y013697D02*
X014878Y013697D01*
X013032Y013063D02*
X012186Y013063D01*
X012010Y012905D02*
X013032Y012905D01*
X011752Y013350D02*
X011752Y013996D01*
X012106Y014350D01*
X011776Y014331D02*
X008693Y014331D01*
X008546Y014173D02*
X011617Y014173D01*
X011532Y014014D02*
X008797Y014014D01*
X008802Y013856D02*
X010640Y013856D01*
X010865Y013856D02*
X011532Y013856D01*
X011378Y013697D02*
X011127Y013697D01*
X011226Y013539D02*
X011278Y013539D01*
X011254Y013222D02*
X011251Y013222D01*
X011186Y013063D02*
X011319Y013063D01*
X011495Y012905D02*
X011010Y012905D01*
X010752Y013350D02*
X010606Y013350D01*
X010252Y012996D01*
X010032Y013063D02*
X008693Y013063D01*
X008802Y013222D02*
X010166Y013222D01*
X010242Y013380D02*
X008802Y013380D01*
X008802Y013539D02*
X010278Y013539D01*
X010378Y013697D02*
X008802Y013697D01*
X008272Y013539D02*
X008232Y013539D01*
X008232Y013380D02*
X008272Y013380D01*
X008272Y013222D02*
X008232Y013222D01*
X008232Y013063D02*
X008272Y013063D01*
X007812Y013063D02*
X006252Y013063D01*
X006252Y012905D02*
X010032Y012905D01*
X010032Y012746D02*
X006252Y012746D01*
X006252Y012588D02*
X010032Y012588D01*
X010032Y012429D02*
X006252Y012429D01*
X006252Y012271D02*
X010032Y012271D01*
X010652Y011954D02*
X012852Y011954D01*
X012852Y011795D02*
X010652Y011795D01*
X010605Y011637D02*
X012900Y011637D01*
X013059Y011478D02*
X010446Y011478D01*
X007702Y013222D02*
X006252Y013222D01*
X006252Y013380D02*
X007702Y013380D01*
X007702Y013539D02*
X006252Y013539D01*
X006252Y013697D02*
X007702Y013697D01*
X007702Y013856D02*
X006252Y013856D01*
X006252Y014014D02*
X007708Y014014D01*
X007959Y014173D02*
X006252Y014173D01*
X006252Y014331D02*
X007812Y014331D01*
X007746Y014490D02*
X006252Y014490D01*
X006252Y014648D02*
X007742Y014648D01*
X007786Y014807D02*
X006252Y014807D01*
X006252Y014965D02*
X007896Y014965D01*
X008070Y015124D02*
X006252Y015124D01*
X006252Y015282D02*
X007849Y015282D01*
X007766Y015441D02*
X006252Y015441D01*
X006252Y015599D02*
X007742Y015599D01*
X007766Y015758D02*
X006252Y015758D01*
X006252Y015916D02*
X007847Y015916D01*
X008065Y016075D02*
X006252Y016075D01*
X009058Y016709D02*
X010390Y016709D01*
X009312Y017977D02*
X009192Y017977D01*
X009192Y018135D02*
X009312Y018135D01*
X009336Y018294D02*
X009169Y018294D01*
X009073Y018452D02*
X009432Y018452D01*
X008663Y019500D02*
X008663Y019500D01*
X008061Y019847D02*
X008061Y019847D01*
X008061Y019847D01*
X011732Y018452D02*
X011772Y018452D01*
X011772Y018294D02*
X011732Y018294D01*
X011732Y018135D02*
X011772Y018135D01*
X011772Y017977D02*
X011732Y017977D01*
X016252Y011161D02*
X016252Y011161D01*
X016252Y011003D02*
X016252Y011003D01*
X016252Y010844D02*
X016252Y010844D01*
X016252Y010686D02*
X016252Y010686D01*
X016252Y010527D02*
X016252Y010527D01*
X016065Y009259D02*
X016940Y009259D01*
X016963Y009282D02*
X016820Y009139D01*
X016742Y008951D01*
X016742Y008749D01*
X016820Y008561D01*
X016963Y008418D01*
X017151Y008340D01*
X017354Y008340D01*
X017541Y008418D01*
X017685Y008561D01*
X017762Y008749D01*
X017762Y008951D01*
X017685Y009139D01*
X017541Y009282D01*
X017354Y009360D01*
X017151Y009360D01*
X016963Y009282D01*
X016804Y009101D02*
X016201Y009101D01*
X016262Y008942D02*
X016742Y008942D01*
X016742Y008784D02*
X016262Y008784D01*
X016211Y008625D02*
X016794Y008625D01*
X016915Y008467D02*
X016090Y008467D01*
X015525Y008308D02*
X012979Y008308D01*
X013090Y008467D02*
X015415Y008467D01*
X015294Y008625D02*
X013211Y008625D01*
X013262Y008784D02*
X015242Y008784D01*
X015242Y008942D02*
X013262Y008942D01*
X013201Y009101D02*
X015304Y009101D01*
X015440Y009259D02*
X013065Y009259D01*
X012440Y009259D02*
X011565Y009259D01*
X011701Y009101D02*
X012304Y009101D01*
X012242Y008942D02*
X011762Y008942D01*
X011762Y008784D02*
X012242Y008784D01*
X012294Y008625D02*
X011711Y008625D01*
X011590Y008467D02*
X012415Y008467D01*
X012525Y008308D02*
X011479Y008308D01*
X011674Y008150D02*
X012331Y008150D01*
X012259Y007991D02*
X011746Y007991D01*
X011762Y007833D02*
X012242Y007833D01*
X012273Y007674D02*
X011731Y007674D01*
X011639Y007516D02*
X012366Y007516D01*
X013139Y007516D02*
X015366Y007516D01*
X015273Y007674D02*
X013231Y007674D01*
X013262Y007833D02*
X015242Y007833D01*
X015259Y007991D02*
X013246Y007991D01*
X013174Y008150D02*
X015331Y008150D01*
X015452Y006723D02*
X015492Y006723D01*
X015492Y006565D02*
X015452Y006565D01*
X015452Y006406D02*
X015492Y006406D01*
X015736Y006723D02*
X017769Y006723D01*
X017744Y006710D02*
X017821Y006750D01*
X017904Y006776D01*
X017989Y006790D01*
X018012Y006790D01*
X018012Y006260D01*
X017482Y006260D01*
X017482Y006283D01*
X017496Y006369D01*
X017523Y006451D01*
X017562Y006528D01*
X017613Y006598D01*
X017674Y006660D01*
X017744Y006710D01*
X017588Y006565D02*
X015916Y006565D01*
X015997Y006406D02*
X017508Y006406D01*
X018012Y006406D02*
X018052Y006406D01*
X018052Y006565D02*
X018012Y006565D01*
X018012Y006723D02*
X018052Y006723D01*
X018296Y006723D02*
X018709Y006723D01*
X018528Y006565D02*
X018476Y006565D01*
X018952Y006565D02*
X018992Y006565D01*
X018992Y006723D02*
X018952Y006723D01*
X019236Y006723D02*
X021269Y006723D01*
X021088Y006565D02*
X019416Y006565D01*
X019497Y006406D02*
X021008Y006406D01*
X021003Y006089D02*
X019502Y006089D01*
X019427Y005931D02*
X021077Y005931D01*
X021241Y005772D02*
X019264Y005772D01*
X018992Y005772D02*
X018952Y005772D01*
X018952Y005931D02*
X018992Y005931D01*
X018992Y006089D02*
X018952Y006089D01*
X018681Y005772D02*
X018324Y005772D01*
X018487Y005931D02*
X018517Y005931D01*
X018052Y005931D02*
X018012Y005931D01*
X018012Y006089D02*
X018052Y006089D01*
X018052Y005772D02*
X018012Y005772D01*
X017741Y005772D02*
X015764Y005772D01*
X015927Y005931D02*
X017577Y005931D01*
X017503Y006089D02*
X016002Y006089D01*
X015492Y006089D02*
X015452Y006089D01*
X015452Y005931D02*
X015492Y005931D01*
X015492Y005772D02*
X015452Y005772D01*
X015181Y005772D02*
X014324Y005772D01*
X014487Y005931D02*
X015017Y005931D01*
X014943Y006089D02*
X014562Y006089D01*
X014557Y006406D02*
X014948Y006406D01*
X015028Y006565D02*
X014476Y006565D01*
X014296Y006723D02*
X015209Y006723D01*
X014052Y006723D02*
X014012Y006723D01*
X014012Y006565D02*
X014052Y006565D01*
X014052Y006406D02*
X014012Y006406D01*
X013769Y006723D02*
X011736Y006723D01*
X011916Y006565D02*
X013588Y006565D01*
X013508Y006406D02*
X011997Y006406D01*
X011492Y006406D02*
X011452Y006406D01*
X011452Y006565D02*
X011492Y006565D01*
X011492Y006723D02*
X011452Y006723D01*
X011209Y006723D02*
X010296Y006723D01*
X010476Y006565D02*
X011028Y006565D01*
X010948Y006406D02*
X010557Y006406D01*
X010562Y006089D02*
X010943Y006089D01*
X011017Y005931D02*
X010487Y005931D01*
X010324Y005772D02*
X011181Y005772D01*
X011452Y005772D02*
X011492Y005772D01*
X011492Y005931D02*
X011452Y005931D01*
X011452Y006089D02*
X011492Y006089D01*
X011764Y005772D02*
X013741Y005772D01*
X013577Y005931D02*
X011927Y005931D01*
X012002Y006089D02*
X013503Y006089D01*
X014012Y006089D02*
X014052Y006089D01*
X014052Y005931D02*
X014012Y005931D01*
X014012Y005772D02*
X014052Y005772D01*
X014134Y004970D02*
X013931Y004970D01*
X013743Y004892D01*
X013600Y004749D01*
X013571Y004680D01*
X011933Y004680D01*
X011905Y004749D01*
X011761Y004892D01*
X011574Y004970D01*
X011371Y004970D01*
X011183Y004892D01*
X011040Y004749D01*
X010962Y004561D01*
X010962Y004359D01*
X011040Y004171D01*
X011183Y004028D01*
X011371Y003950D01*
X011574Y003950D01*
X011761Y004028D01*
X011905Y004171D01*
X011933Y004240D01*
X013571Y004240D01*
X013600Y004171D01*
X013743Y004028D01*
X013931Y003950D01*
X014134Y003950D01*
X014321Y004028D01*
X014465Y004171D01*
X014542Y004359D01*
X014542Y004561D01*
X014465Y004749D01*
X014321Y004892D01*
X014134Y004970D01*
X014393Y004821D02*
X015112Y004821D01*
X015183Y004892D02*
X015040Y004749D01*
X014962Y004561D01*
X014962Y004359D01*
X015040Y004171D01*
X015183Y004028D01*
X015371Y003950D01*
X015574Y003950D01*
X015761Y004028D01*
X015905Y004171D01*
X015933Y004240D01*
X017571Y004240D01*
X017600Y004171D01*
X017743Y004028D01*
X017812Y003999D01*
X017812Y003479D01*
X018032Y003259D01*
X018161Y003130D01*
X021661Y003130D01*
X022532Y002259D01*
X022532Y001811D01*
X022463Y001782D01*
X022320Y001639D01*
X022242Y001451D01*
X022242Y001249D01*
X022320Y001061D01*
X022463Y000918D01*
X022651Y000840D01*
X022854Y000840D01*
X023041Y000918D01*
X023185Y001061D01*
X023252Y001224D01*
X023320Y001061D01*
X023463Y000918D01*
X023651Y000840D01*
X023854Y000840D01*
X024041Y000918D01*
X024185Y001061D01*
X024252Y001224D01*
X024320Y001061D01*
X024463Y000918D01*
X024651Y000840D01*
X024854Y000840D01*
X025041Y000918D01*
X025185Y001061D01*
X025252Y001224D01*
X025320Y001061D01*
X025463Y000918D01*
X025651Y000840D01*
X025854Y000840D01*
X026041Y000918D01*
X026185Y001061D01*
X026252Y001224D01*
X026320Y001061D01*
X026463Y000918D01*
X026651Y000840D01*
X026854Y000840D01*
X027041Y000918D01*
X027185Y001061D01*
X027252Y001224D01*
X027320Y001061D01*
X027463Y000918D01*
X027651Y000840D01*
X027854Y000840D01*
X028041Y000918D01*
X028185Y001061D01*
X028262Y001249D01*
X028262Y001451D01*
X028185Y001639D01*
X028041Y001782D01*
X027854Y001860D01*
X027651Y001860D01*
X027463Y001782D01*
X027320Y001639D01*
X027252Y001476D01*
X027185Y001639D01*
X027041Y001782D01*
X026854Y001860D01*
X026651Y001860D01*
X026463Y001782D01*
X026320Y001639D01*
X026252Y001476D01*
X026185Y001639D01*
X026041Y001782D01*
X025854Y001860D01*
X025651Y001860D01*
X025463Y001782D01*
X025320Y001639D01*
X025252Y001476D01*
X025185Y001639D01*
X025041Y001782D01*
X024854Y001860D01*
X024651Y001860D01*
X024463Y001782D01*
X024320Y001639D01*
X024252Y001476D01*
X024185Y001639D01*
X024041Y001782D01*
X023854Y001860D01*
X023651Y001860D01*
X023463Y001782D01*
X023320Y001639D01*
X023252Y001476D01*
X023185Y001639D01*
X023041Y001782D01*
X022972Y001811D01*
X022972Y002441D01*
X022843Y002570D01*
X021843Y003570D01*
X018343Y003570D01*
X018252Y003661D01*
X018252Y003999D01*
X018321Y004028D01*
X018465Y004171D01*
X018502Y004262D01*
X018540Y004171D01*
X018683Y004028D01*
X018871Y003950D01*
X019074Y003950D01*
X019261Y004028D01*
X019405Y004171D01*
X019433Y004240D01*
X021071Y004240D01*
X021100Y004171D01*
X021243Y004028D01*
X021431Y003950D01*
X021634Y003950D01*
X021821Y004028D01*
X021965Y004171D01*
X022042Y004359D01*
X022042Y004561D01*
X021965Y004749D01*
X021821Y004892D01*
X021634Y004970D01*
X021431Y004970D01*
X021243Y004892D01*
X021100Y004749D01*
X021071Y004680D01*
X019433Y004680D01*
X019405Y004749D01*
X019261Y004892D01*
X019074Y004970D01*
X018871Y004970D01*
X018683Y004892D01*
X018540Y004749D01*
X018502Y004658D01*
X018465Y004749D01*
X018321Y004892D01*
X018134Y004970D01*
X017931Y004970D01*
X017743Y004892D01*
X017600Y004749D01*
X017571Y004680D01*
X015933Y004680D01*
X015905Y004749D01*
X015761Y004892D01*
X015574Y004970D01*
X015371Y004970D01*
X015183Y004892D01*
X015004Y004663D02*
X014500Y004663D01*
X014542Y004504D02*
X014962Y004504D01*
X014968Y004346D02*
X014537Y004346D01*
X014471Y004187D02*
X015033Y004187D01*
X015183Y004029D02*
X014322Y004029D01*
X014243Y003750D02*
X014161Y003776D01*
X014076Y003790D01*
X014052Y003790D01*
X014052Y003260D01*
X014012Y003260D01*
X014012Y003220D01*
X013482Y003220D01*
X013482Y003197D01*
X013496Y003111D01*
X013523Y003029D01*
X013562Y002952D01*
X013613Y002882D01*
X013674Y002820D01*
X013744Y002770D01*
X013821Y002730D01*
X013904Y002704D01*
X013989Y002690D01*
X014012Y002690D01*
X014012Y003220D01*
X014052Y003220D01*
X014052Y002690D01*
X014076Y002690D01*
X014161Y002704D01*
X014243Y002730D01*
X014321Y002770D01*
X014391Y002820D01*
X014452Y002882D01*
X014503Y002952D01*
X014542Y003029D01*
X014569Y003111D01*
X014582Y003197D01*
X014582Y003220D01*
X014052Y003220D01*
X014052Y003260D01*
X014582Y003260D01*
X014582Y003283D01*
X014569Y003369D01*
X014542Y003451D01*
X014503Y003528D01*
X014452Y003598D01*
X014391Y003660D01*
X014321Y003710D01*
X014243Y003750D01*
X014318Y003712D02*
X017812Y003712D01*
X017812Y003870D02*
X006252Y003870D01*
X006252Y003712D02*
X007186Y003712D01*
X007184Y003710D02*
X007114Y003660D01*
X007053Y003598D01*
X007002Y003528D01*
X006963Y003451D01*
X006936Y003369D01*
X006922Y003283D01*
X006922Y003260D01*
X007452Y003260D01*
X007452Y003220D01*
X006922Y003220D01*
X006922Y003197D01*
X006936Y003111D01*
X006963Y003029D01*
X007002Y002952D01*
X007053Y002882D01*
X007114Y002820D01*
X007184Y002770D01*
X007261Y002730D01*
X007344Y002704D01*
X007429Y002690D01*
X007452Y002690D01*
X007452Y003220D01*
X007492Y003220D01*
X007492Y002690D01*
X007516Y002690D01*
X007601Y002704D01*
X007683Y002730D01*
X007761Y002770D01*
X007831Y002820D01*
X007892Y002882D01*
X007943Y002952D01*
X007982Y003029D01*
X008009Y003111D01*
X008022Y003197D01*
X008022Y003220D01*
X007492Y003220D01*
X007492Y003260D01*
X007452Y003260D01*
X007452Y003790D01*
X007429Y003790D01*
X007344Y003776D01*
X007261Y003750D01*
X007184Y003710D01*
X007020Y003553D02*
X006252Y003553D01*
X006252Y003395D02*
X006944Y003395D01*
X006947Y003078D02*
X006252Y003078D01*
X006252Y003236D02*
X007452Y003236D01*
X007492Y003236D02*
X010012Y003236D01*
X010012Y003220D02*
X009482Y003220D01*
X009482Y003197D01*
X009496Y003111D01*
X009523Y003029D01*
X009562Y002952D01*
X009613Y002882D01*
X009674Y002820D01*
X009744Y002770D01*
X009821Y002730D01*
X009904Y002704D01*
X009989Y002690D01*
X010012Y002690D01*
X010012Y003220D01*
X010012Y003260D01*
X009482Y003260D01*
X009482Y003283D01*
X009496Y003369D01*
X009523Y003451D01*
X009562Y003528D01*
X009613Y003598D01*
X009674Y003660D01*
X009744Y003710D01*
X009821Y003750D01*
X009904Y003776D01*
X009989Y003790D01*
X010012Y003790D01*
X010012Y003260D01*
X010052Y003260D01*
X010052Y003790D01*
X010076Y003790D01*
X010161Y003776D01*
X010243Y003750D01*
X010321Y003710D01*
X010391Y003660D01*
X010452Y003598D01*
X010503Y003528D01*
X010542Y003451D01*
X010569Y003369D01*
X010582Y003283D01*
X010582Y003260D01*
X010052Y003260D01*
X010052Y003220D01*
X010052Y002690D01*
X010076Y002690D01*
X010161Y002704D01*
X010243Y002730D01*
X010321Y002770D01*
X010391Y002820D01*
X010452Y002882D01*
X010503Y002952D01*
X010542Y003029D01*
X010569Y003111D01*
X010582Y003197D01*
X010582Y003220D01*
X010052Y003220D01*
X010012Y003220D01*
X010052Y003236D02*
X011452Y003236D01*
X011452Y003220D02*
X010922Y003220D01*
X010922Y003197D01*
X010936Y003111D01*
X010963Y003029D01*
X011002Y002952D01*
X011053Y002882D01*
X011114Y002820D01*
X011184Y002770D01*
X011261Y002730D01*
X011344Y002704D01*
X011429Y002690D01*
X011452Y002690D01*
X011452Y003220D01*
X011452Y003260D01*
X010922Y003260D01*
X010922Y003283D01*
X010936Y003369D01*
X010963Y003451D01*
X011002Y003528D01*
X011053Y003598D01*
X011114Y003660D01*
X011184Y003710D01*
X011261Y003750D01*
X011344Y003776D01*
X011429Y003790D01*
X011452Y003790D01*
X011452Y003260D01*
X011492Y003260D01*
X011492Y003790D01*
X011516Y003790D01*
X011601Y003776D01*
X011683Y003750D01*
X011761Y003710D01*
X011831Y003660D01*
X011892Y003598D01*
X011943Y003528D01*
X011982Y003451D01*
X012009Y003369D01*
X012022Y003283D01*
X012022Y003260D01*
X011492Y003260D01*
X011492Y003220D01*
X011492Y002690D01*
X011516Y002690D01*
X011601Y002704D01*
X011683Y002730D01*
X011761Y002770D01*
X011831Y002820D01*
X011892Y002882D01*
X011943Y002952D01*
X011982Y003029D01*
X012009Y003111D01*
X012022Y003197D01*
X012022Y003220D01*
X011492Y003220D01*
X011452Y003220D01*
X011492Y003236D02*
X014012Y003236D01*
X014012Y003260D02*
X013482Y003260D01*
X013482Y003283D01*
X013496Y003369D01*
X013523Y003451D01*
X013562Y003528D01*
X013613Y003598D01*
X013674Y003660D01*
X013744Y003710D01*
X013821Y003750D01*
X013904Y003776D01*
X013989Y003790D01*
X014012Y003790D01*
X014012Y003260D01*
X014052Y003236D02*
X018055Y003236D01*
X017897Y003395D02*
X014560Y003395D01*
X014485Y003553D02*
X017812Y003553D01*
X018032Y003570D02*
X018252Y003350D01*
X021752Y003350D01*
X022752Y002350D01*
X022752Y001350D01*
X022273Y001176D02*
X021232Y001176D01*
X021262Y001249D02*
X021262Y001451D01*
X021185Y001639D01*
X021041Y001782D01*
X020854Y001860D01*
X020651Y001860D01*
X020463Y001782D01*
X020320Y001639D01*
X020273Y001526D01*
X020262Y001561D01*
X020223Y001638D01*
X020172Y001708D01*
X020111Y001770D01*
X020041Y001820D01*
X019963Y001860D01*
X019881Y001886D01*
X019796Y001900D01*
X019772Y001900D01*
X019772Y001370D01*
X019732Y001370D01*
X019732Y001330D01*
X019202Y001330D01*
X018772Y001330D01*
X018772Y000800D01*
X018796Y000800D01*
X018881Y000814D01*
X018963Y000840D01*
X019041Y000880D01*
X019111Y000930D01*
X019172Y000992D01*
X019223Y001062D01*
X019252Y001120D01*
X019282Y001062D01*
X019333Y000992D01*
X019394Y000930D01*
X019464Y000880D01*
X019541Y000840D01*
X019624Y000814D01*
X019709Y000800D01*
X019732Y000800D01*
X019732Y001330D01*
X019772Y001330D01*
X019772Y000800D01*
X019796Y000800D01*
X019881Y000814D01*
X019963Y000840D01*
X020041Y000880D01*
X020111Y000930D01*
X020172Y000992D01*
X020223Y001062D01*
X020262Y001139D01*
X020273Y001174D01*
X020320Y001061D01*
X020463Y000918D01*
X020651Y000840D01*
X020854Y000840D01*
X021041Y000918D01*
X021185Y001061D01*
X021262Y001249D01*
X021262Y001334D02*
X022242Y001334D01*
X022259Y001493D02*
X021245Y001493D01*
X021173Y001651D02*
X022332Y001651D01*
X022529Y001810D02*
X020976Y001810D01*
X020529Y001810D02*
X020056Y001810D01*
X020213Y001651D02*
X020332Y001651D01*
X019772Y001651D02*
X019732Y001651D01*
X019732Y001493D02*
X019772Y001493D01*
X019732Y001370D02*
X019732Y001900D01*
X019709Y001900D01*
X019624Y001886D01*
X019541Y001860D01*
X019464Y001820D01*
X019394Y001770D01*
X019333Y001708D01*
X019282Y001638D01*
X019252Y001580D01*
X019223Y001638D01*
X019172Y001708D01*
X019111Y001770D01*
X019041Y001820D01*
X018963Y001860D01*
X018881Y001886D01*
X018796Y001900D01*
X018772Y001900D01*
X018772Y001370D01*
X018732Y001370D01*
X018732Y001900D01*
X018709Y001900D01*
X018624Y001886D01*
X018541Y001860D01*
X018464Y001820D01*
X018394Y001770D01*
X018333Y001708D01*
X018282Y001638D01*
X018243Y001561D01*
X018231Y001526D01*
X018185Y001639D01*
X018041Y001782D01*
X017854Y001860D01*
X017651Y001860D01*
X017463Y001782D01*
X017320Y001639D01*
X017252Y001476D01*
X017185Y001639D01*
X017041Y001782D01*
X016854Y001860D01*
X016651Y001860D01*
X016463Y001782D01*
X016320Y001639D01*
X016252Y001476D01*
X016185Y001639D01*
X016041Y001782D01*
X015854Y001860D01*
X015651Y001860D01*
X015463Y001782D01*
X015361Y001680D01*
X014493Y001680D01*
X014465Y001749D01*
X014321Y001892D01*
X014134Y001970D01*
X013931Y001970D01*
X013743Y001892D01*
X013600Y001749D01*
X013571Y001680D01*
X011933Y001680D01*
X011905Y001749D01*
X011761Y001892D01*
X011574Y001970D01*
X011371Y001970D01*
X011183Y001892D01*
X011040Y001749D01*
X010962Y001561D01*
X010962Y001359D01*
X011040Y001171D01*
X011183Y001028D01*
X011371Y000950D01*
X011574Y000950D01*
X011761Y001028D01*
X011905Y001171D01*
X011933Y001240D01*
X013571Y001240D01*
X013600Y001171D01*
X013743Y001028D01*
X013931Y000950D01*
X014134Y000950D01*
X014321Y001028D01*
X014465Y001171D01*
X014493Y001240D01*
X015246Y001240D01*
X015320Y001061D01*
X015463Y000918D01*
X015651Y000840D01*
X015854Y000840D01*
X016041Y000918D01*
X016185Y001061D01*
X016252Y001224D01*
X016320Y001061D01*
X016463Y000918D01*
X016651Y000840D01*
X016854Y000840D01*
X017041Y000918D01*
X017185Y001061D01*
X017252Y001224D01*
X017320Y001061D01*
X017463Y000918D01*
X017651Y000840D01*
X017854Y000840D01*
X018041Y000918D01*
X018185Y001061D01*
X018231Y001174D01*
X018243Y001139D01*
X018282Y001062D01*
X018333Y000992D01*
X018394Y000930D01*
X018464Y000880D01*
X018541Y000840D01*
X018624Y000814D01*
X018709Y000800D01*
X018732Y000800D01*
X018732Y001330D01*
X018772Y001330D01*
X018772Y001370D01*
X019732Y001370D01*
X019732Y001334D02*
X018772Y001334D01*
X018772Y001176D02*
X018732Y001176D01*
X018732Y001017D02*
X018772Y001017D01*
X018772Y000859D02*
X018732Y000859D01*
X018505Y000859D02*
X017899Y000859D01*
X018141Y001017D02*
X018314Y001017D01*
X018732Y001493D02*
X018772Y001493D01*
X018772Y001651D02*
X018732Y001651D01*
X018732Y001810D02*
X018772Y001810D01*
X019056Y001810D02*
X019449Y001810D01*
X019291Y001651D02*
X019213Y001651D01*
X019732Y001810D02*
X019772Y001810D01*
X019772Y001176D02*
X019732Y001176D01*
X019732Y001017D02*
X019772Y001017D01*
X019772Y000859D02*
X019732Y000859D01*
X019505Y000859D02*
X018999Y000859D01*
X019190Y001017D02*
X019314Y001017D01*
X019999Y000859D02*
X020606Y000859D01*
X020364Y001017D02*
X020190Y001017D01*
X020899Y000859D02*
X022606Y000859D01*
X022364Y001017D02*
X021141Y001017D01*
X022532Y001968D02*
X014139Y001968D01*
X013926Y001968D02*
X011579Y001968D01*
X011366Y001968D02*
X010139Y001968D01*
X010134Y001970D02*
X009931Y001970D01*
X009743Y001892D01*
X009600Y001749D01*
X009571Y001680D01*
X007933Y001680D01*
X007905Y001749D01*
X007761Y001892D01*
X007574Y001970D01*
X007371Y001970D01*
X007183Y001892D01*
X007040Y001749D01*
X006962Y001561D01*
X006962Y001359D01*
X007040Y001171D01*
X007183Y001028D01*
X007371Y000950D01*
X007574Y000950D01*
X007761Y001028D01*
X007905Y001171D01*
X007933Y001240D01*
X009571Y001240D01*
X009600Y001171D01*
X009743Y001028D01*
X009931Y000950D01*
X010134Y000950D01*
X010321Y001028D01*
X010465Y001171D01*
X010542Y001359D01*
X010542Y001561D01*
X010465Y001749D01*
X010321Y001892D01*
X010134Y001970D01*
X009926Y001968D02*
X007579Y001968D01*
X007366Y001968D02*
X006252Y001968D01*
X006252Y001810D02*
X007101Y001810D01*
X006999Y001651D02*
X006252Y001651D01*
X006252Y001493D02*
X006962Y001493D01*
X006973Y001334D02*
X006268Y001334D01*
X006427Y001176D02*
X007038Y001176D01*
X007209Y001017D02*
X006585Y001017D01*
X006744Y000859D02*
X015606Y000859D01*
X015364Y001017D02*
X014296Y001017D01*
X014467Y001176D02*
X015273Y001176D01*
X015642Y001460D02*
X015752Y001350D01*
X015642Y001460D02*
X014032Y001460D01*
X011472Y001460D01*
X011907Y001176D02*
X013598Y001176D01*
X013769Y001017D02*
X011736Y001017D01*
X011209Y001017D02*
X010296Y001017D01*
X010467Y001176D02*
X011038Y001176D01*
X010973Y001334D02*
X010532Y001334D01*
X010542Y001493D02*
X010962Y001493D01*
X010999Y001651D02*
X010505Y001651D01*
X010404Y001810D02*
X011101Y001810D01*
X011844Y001810D02*
X013661Y001810D01*
X014404Y001810D02*
X015529Y001810D01*
X015976Y001810D02*
X016529Y001810D01*
X016332Y001651D02*
X016173Y001651D01*
X016245Y001493D02*
X016259Y001493D01*
X016273Y001176D02*
X016232Y001176D01*
X016141Y001017D02*
X016364Y001017D01*
X016606Y000859D02*
X015899Y000859D01*
X016899Y000859D02*
X017606Y000859D01*
X017364Y001017D02*
X017141Y001017D01*
X017232Y001176D02*
X017273Y001176D01*
X017259Y001493D02*
X017245Y001493D01*
X017173Y001651D02*
X017332Y001651D01*
X017529Y001810D02*
X016976Y001810D01*
X017976Y001810D02*
X018449Y001810D01*
X018291Y001651D02*
X018173Y001651D01*
X018032Y003570D02*
X018032Y004460D01*
X015472Y004460D01*
X015911Y004187D02*
X017593Y004187D01*
X017743Y004029D02*
X015762Y004029D01*
X015833Y004821D02*
X017672Y004821D01*
X018393Y004821D02*
X018612Y004821D01*
X018504Y004663D02*
X018500Y004663D01*
X018471Y004187D02*
X018533Y004187D01*
X018683Y004029D02*
X018322Y004029D01*
X018252Y003870D02*
X022742Y003870D01*
X022758Y003712D02*
X018252Y003712D01*
X018972Y004460D02*
X021532Y004460D01*
X021093Y004187D02*
X019411Y004187D01*
X019262Y004029D02*
X021243Y004029D01*
X021822Y004029D02*
X022774Y004029D01*
X022868Y004187D02*
X021971Y004187D01*
X022037Y004346D02*
X023116Y004346D01*
X023389Y004346D02*
X029752Y004346D01*
X029752Y004504D02*
X023628Y004504D01*
X023727Y004663D02*
X029752Y004663D01*
X029752Y004821D02*
X023762Y004821D01*
X023751Y004980D02*
X029752Y004980D01*
X029752Y005138D02*
X023685Y005138D01*
X022998Y005297D02*
X006252Y005297D01*
X006252Y005455D02*
X022926Y005455D01*
X022820Y005138D02*
X006252Y005138D01*
X006252Y004980D02*
X022754Y004980D01*
X022742Y004821D02*
X021893Y004821D01*
X022000Y004663D02*
X022778Y004663D01*
X022877Y004504D02*
X022042Y004504D01*
X021172Y004821D02*
X019333Y004821D01*
X018992Y006406D02*
X018952Y006406D01*
X019963Y008418D02*
X020151Y008340D01*
X020354Y008340D01*
X020541Y008418D01*
X020685Y008561D01*
X020762Y008749D01*
X020762Y008951D01*
X020685Y009139D01*
X020541Y009282D01*
X020354Y009360D01*
X020151Y009360D01*
X019963Y009282D01*
X019820Y009139D01*
X019742Y008951D01*
X019742Y008749D01*
X019820Y008561D01*
X019963Y008418D01*
X019915Y008467D02*
X017590Y008467D01*
X017711Y008625D02*
X019794Y008625D01*
X019742Y008784D02*
X017762Y008784D01*
X017762Y008942D02*
X019742Y008942D01*
X019804Y009101D02*
X017701Y009101D01*
X017565Y009259D02*
X019940Y009259D01*
X020565Y009259D02*
X022768Y009259D01*
X022747Y009101D02*
X020701Y009101D01*
X020762Y008942D02*
X022747Y008942D01*
X022747Y008784D02*
X020762Y008784D01*
X020711Y008625D02*
X022747Y008625D01*
X022757Y008467D02*
X020590Y008467D01*
X022869Y009576D02*
X006252Y009576D01*
X006252Y009418D02*
X023081Y009418D01*
X022797Y009735D02*
X006252Y009735D01*
X006252Y009893D02*
X022787Y009893D01*
X022833Y010052D02*
X006252Y010052D01*
X006252Y010210D02*
X022955Y010210D01*
X023672Y010052D02*
X024725Y010052D01*
X024786Y011003D02*
X023563Y011003D01*
X023252Y011350D02*
X025252Y011350D01*
X025719Y011003D02*
X026532Y011003D01*
X026532Y011161D02*
X025867Y011161D01*
X025912Y011320D02*
X026532Y011320D01*
X026532Y011478D02*
X025892Y011478D01*
X025252Y012350D02*
X023252Y012350D01*
X026972Y012588D02*
X027664Y012588D01*
X027903Y012746D02*
X026972Y012746D01*
X027027Y013063D02*
X027714Y013063D01*
X027502Y012350D02*
X028252Y012350D01*
X027904Y011954D02*
X027472Y011954D01*
X027472Y011795D02*
X029752Y011795D01*
X029752Y011637D02*
X028792Y011637D01*
X028739Y011689D02*
X028592Y011750D01*
X027913Y011750D01*
X027766Y011689D01*
X027653Y011577D01*
X027592Y011430D01*
X027592Y011270D01*
X027653Y011123D01*
X027766Y011011D01*
X027913Y010950D01*
X028592Y010950D01*
X028739Y011011D01*
X028851Y011123D01*
X028912Y011270D01*
X028912Y011430D01*
X028851Y011577D01*
X028739Y011689D01*
X028892Y011478D02*
X029752Y011478D01*
X029752Y011320D02*
X028912Y011320D01*
X028867Y011161D02*
X029752Y011161D01*
X029752Y011003D02*
X028719Y011003D01*
X028592Y010750D02*
X028739Y010689D01*
X028851Y010577D01*
X028912Y010430D01*
X028912Y010270D01*
X028851Y010123D01*
X028739Y010011D01*
X028592Y009950D01*
X027913Y009950D01*
X027766Y010011D01*
X027653Y010123D01*
X027592Y010270D01*
X027592Y010430D01*
X027653Y010577D01*
X027766Y010689D01*
X027913Y010750D01*
X028592Y010750D01*
X028743Y010686D02*
X029752Y010686D01*
X029752Y010844D02*
X027472Y010844D01*
X027472Y010686D02*
X027762Y010686D01*
X027633Y010527D02*
X027472Y010527D01*
X027472Y010369D02*
X027592Y010369D01*
X027617Y010210D02*
X027472Y010210D01*
X027472Y010052D02*
X027725Y010052D01*
X027472Y009893D02*
X029752Y009893D01*
X029752Y009735D02*
X028629Y009735D01*
X028592Y009750D02*
X028739Y009689D01*
X028851Y009577D01*
X028912Y009430D01*
X028912Y009270D01*
X028851Y009123D01*
X028739Y009011D01*
X028592Y008950D01*
X027913Y008950D01*
X027766Y009011D01*
X027653Y009123D01*
X027592Y009270D01*
X027592Y009430D01*
X027653Y009577D01*
X027766Y009689D01*
X027913Y009750D01*
X028592Y009750D01*
X028852Y009576D02*
X029752Y009576D01*
X029752Y009418D02*
X028912Y009418D01*
X028908Y009259D02*
X029752Y009259D01*
X029752Y009101D02*
X028829Y009101D01*
X028739Y008689D02*
X028592Y008750D01*
X027913Y008750D01*
X027766Y008689D01*
X027653Y008577D01*
X027592Y008430D01*
X027592Y008270D01*
X027653Y008123D01*
X027766Y008011D01*
X027913Y007950D01*
X028592Y007950D01*
X028739Y008011D01*
X028851Y008123D01*
X028912Y008270D01*
X028912Y008430D01*
X028851Y008577D01*
X028739Y008689D01*
X028803Y008625D02*
X029752Y008625D01*
X029752Y008467D02*
X028897Y008467D01*
X028912Y008308D02*
X029752Y008308D01*
X029752Y008150D02*
X028862Y008150D01*
X028691Y007991D02*
X029752Y007991D01*
X029752Y007833D02*
X027472Y007833D01*
X027472Y007991D02*
X027814Y007991D01*
X027642Y008150D02*
X027472Y008150D01*
X027472Y008308D02*
X027592Y008308D01*
X027608Y008467D02*
X027472Y008467D01*
X027472Y008625D02*
X027702Y008625D01*
X027472Y008784D02*
X029752Y008784D01*
X029752Y008942D02*
X027472Y008942D01*
X027472Y009101D02*
X027676Y009101D01*
X027597Y009259D02*
X027472Y009259D01*
X027472Y009418D02*
X027592Y009418D01*
X027653Y009576D02*
X027472Y009576D01*
X027472Y009735D02*
X027875Y009735D01*
X028780Y010052D02*
X029752Y010052D01*
X029752Y010210D02*
X028887Y010210D01*
X028912Y010369D02*
X029752Y010369D01*
X029752Y010527D02*
X028872Y010527D01*
X027786Y011003D02*
X027472Y011003D01*
X027472Y011161D02*
X027638Y011161D01*
X027592Y011320D02*
X027472Y011320D01*
X027472Y011478D02*
X027612Y011478D01*
X027713Y011637D02*
X027472Y011637D01*
X027576Y012112D02*
X027665Y012112D01*
X028600Y011954D02*
X029752Y011954D01*
X029752Y012112D02*
X028840Y012112D01*
X028912Y012271D02*
X029752Y012271D01*
X029752Y012429D02*
X028912Y012429D01*
X028841Y012588D02*
X029752Y012588D01*
X029752Y012746D02*
X028601Y012746D01*
X024676Y009101D02*
X023757Y009101D01*
X023757Y008625D02*
X024702Y008625D01*
X026972Y008625D02*
X027032Y008625D01*
X027032Y008467D02*
X026972Y008467D01*
X026972Y008308D02*
X027032Y008308D01*
X027032Y008150D02*
X026972Y008150D01*
X026972Y007991D02*
X027032Y007991D01*
X027032Y007833D02*
X026972Y007833D01*
X027472Y007674D02*
X029752Y007674D01*
X029752Y007516D02*
X027472Y007516D01*
X027472Y007357D02*
X029752Y007357D01*
X029752Y007199D02*
X027472Y007199D01*
X027472Y007040D02*
X029752Y007040D01*
X029752Y006882D02*
X027472Y006882D01*
X027472Y006723D02*
X029752Y006723D01*
X029752Y006565D02*
X027472Y006565D01*
X027705Y006089D02*
X027757Y006089D01*
X028232Y005455D02*
X028272Y005455D01*
X028587Y004180D02*
X028539Y004160D01*
X028325Y004090D01*
X028285Y004055D01*
X028282Y004054D01*
X028266Y004038D01*
X028061Y003853D01*
X028061Y003853D01*
X027916Y003528D01*
X027916Y003172D01*
X028061Y002847D01*
X028266Y002662D01*
X028282Y002646D01*
X028285Y002645D01*
X028325Y002610D01*
X028539Y002540D01*
X028587Y002520D01*
X028600Y002520D01*
X028663Y002500D01*
X028856Y002520D01*
X028917Y002520D01*
X028938Y002529D01*
X029017Y002537D01*
X029165Y002623D01*
X029223Y002646D01*
X029245Y002669D01*
X029324Y002715D01*
X029414Y002838D01*
X029456Y002880D01*
X029471Y002917D01*
X029533Y003002D01*
X029533Y003002D01*
X029562Y003135D01*
X029582Y003185D01*
X029582Y003232D01*
X029607Y003350D01*
X029582Y003468D01*
X029582Y003515D01*
X029562Y003565D01*
X029533Y003698D01*
X029471Y003783D01*
X029456Y003820D01*
X029414Y003862D01*
X029324Y003985D01*
X029245Y004031D01*
X029223Y004054D01*
X029165Y004077D01*
X029017Y004163D01*
X029017Y004163D01*
X028938Y004171D01*
X028917Y004180D01*
X028856Y004180D01*
X028663Y004200D01*
X028600Y004180D01*
X028587Y004180D01*
X028622Y004187D02*
X023637Y004187D01*
X023730Y004029D02*
X028256Y004029D01*
X028325Y004090D02*
X028325Y004090D01*
X028080Y003870D02*
X023762Y003870D01*
X023747Y003712D02*
X027998Y003712D01*
X027927Y003553D02*
X023677Y003553D01*
X023485Y003395D02*
X027916Y003395D01*
X027916Y003236D02*
X022177Y003236D01*
X022019Y003395D02*
X023019Y003395D01*
X022828Y003553D02*
X021860Y003553D01*
X021714Y003078D02*
X014558Y003078D01*
X014479Y002919D02*
X021872Y002919D01*
X022031Y002761D02*
X014303Y002761D01*
X014052Y002761D02*
X014012Y002761D01*
X014012Y002919D02*
X014052Y002919D01*
X014052Y003078D02*
X014012Y003078D01*
X014012Y003395D02*
X014052Y003395D01*
X014052Y003553D02*
X014012Y003553D01*
X014012Y003712D02*
X014052Y003712D01*
X013746Y003712D02*
X011758Y003712D01*
X011925Y003553D02*
X013580Y003553D01*
X013504Y003395D02*
X012000Y003395D01*
X011998Y003078D02*
X013507Y003078D01*
X013586Y002919D02*
X011919Y002919D01*
X011743Y002761D02*
X013762Y002761D01*
X013743Y004029D02*
X011762Y004029D01*
X011911Y004187D02*
X013593Y004187D01*
X014032Y004460D02*
X011472Y004460D01*
X011004Y004663D02*
X010500Y004663D01*
X010465Y004749D02*
X010321Y004892D01*
X010134Y004970D01*
X009931Y004970D01*
X009743Y004892D01*
X009600Y004749D01*
X009571Y004680D01*
X007933Y004680D01*
X007905Y004749D01*
X007761Y004892D01*
X007574Y004970D01*
X007371Y004970D01*
X007183Y004892D01*
X007040Y004749D01*
X006962Y004561D01*
X006962Y004359D01*
X007040Y004171D01*
X007183Y004028D01*
X007371Y003950D01*
X007574Y003950D01*
X007761Y004028D01*
X007905Y004171D01*
X007933Y004240D01*
X009571Y004240D01*
X009600Y004171D01*
X009743Y004028D01*
X009931Y003950D01*
X010134Y003950D01*
X010321Y004028D01*
X010465Y004171D01*
X010542Y004359D01*
X010542Y004561D01*
X010465Y004749D01*
X010393Y004821D02*
X011112Y004821D01*
X010962Y004504D02*
X010542Y004504D01*
X010537Y004346D02*
X010968Y004346D01*
X011033Y004187D02*
X010471Y004187D01*
X010322Y004029D02*
X011183Y004029D01*
X011186Y003712D02*
X010318Y003712D01*
X010485Y003553D02*
X011020Y003553D01*
X010944Y003395D02*
X010560Y003395D01*
X010558Y003078D02*
X010947Y003078D01*
X011026Y002919D02*
X010479Y002919D01*
X010303Y002761D02*
X011202Y002761D01*
X011452Y002761D02*
X011492Y002761D01*
X011492Y002919D02*
X011452Y002919D01*
X011452Y003078D02*
X011492Y003078D01*
X011492Y003395D02*
X011452Y003395D01*
X011452Y003553D02*
X011492Y003553D01*
X011492Y003712D02*
X011452Y003712D01*
X010052Y003712D02*
X010012Y003712D01*
X010012Y003553D02*
X010052Y003553D01*
X010052Y003395D02*
X010012Y003395D01*
X010012Y003078D02*
X010052Y003078D01*
X010052Y002919D02*
X010012Y002919D01*
X010012Y002761D02*
X010052Y002761D01*
X009762Y002761D02*
X007743Y002761D01*
X007919Y002919D02*
X009586Y002919D01*
X009507Y003078D02*
X007998Y003078D01*
X008022Y003260D02*
X008022Y003283D01*
X008009Y003369D01*
X007982Y003451D01*
X007943Y003528D01*
X007892Y003598D01*
X007831Y003660D01*
X007761Y003710D01*
X007683Y003750D01*
X007601Y003776D01*
X007516Y003790D01*
X007492Y003790D01*
X007492Y003260D01*
X008022Y003260D01*
X008000Y003395D02*
X009504Y003395D01*
X009580Y003553D02*
X007925Y003553D01*
X007758Y003712D02*
X009746Y003712D01*
X009743Y004029D02*
X007762Y004029D01*
X007911Y004187D02*
X009593Y004187D01*
X010032Y004460D02*
X007472Y004460D01*
X007004Y004663D02*
X006252Y004663D01*
X006252Y004821D02*
X007112Y004821D01*
X006962Y004504D02*
X006252Y004504D01*
X006252Y004346D02*
X006968Y004346D01*
X007033Y004187D02*
X006252Y004187D01*
X006252Y004029D02*
X007183Y004029D01*
X007452Y003712D02*
X007492Y003712D01*
X007492Y003553D02*
X007452Y003553D01*
X007452Y003395D02*
X007492Y003395D01*
X007492Y003078D02*
X007452Y003078D01*
X007452Y002919D02*
X007492Y002919D01*
X007492Y002761D02*
X007452Y002761D01*
X007202Y002761D02*
X006252Y002761D01*
X006252Y002919D02*
X007026Y002919D01*
X006252Y002602D02*
X022189Y002602D01*
X022348Y002444D02*
X006252Y002444D01*
X006252Y002285D02*
X022506Y002285D01*
X022532Y002127D02*
X006252Y002127D01*
X007472Y001460D02*
X010032Y001460D01*
X009661Y001810D02*
X007844Y001810D01*
X007907Y001176D02*
X009598Y001176D01*
X009769Y001017D02*
X007736Y001017D01*
X007061Y000542D02*
X028752Y000542D01*
X028752Y000700D02*
X006902Y000700D01*
X007219Y000383D02*
X028752Y000383D01*
X028752Y000859D02*
X027899Y000859D01*
X028141Y001017D02*
X028752Y001017D01*
X028752Y001176D02*
X028232Y001176D01*
X028262Y001334D02*
X028752Y001334D01*
X028895Y001493D02*
X028245Y001493D01*
X028173Y001651D02*
X029053Y001651D01*
X029212Y001810D02*
X027976Y001810D01*
X027529Y001810D02*
X026976Y001810D01*
X027173Y001651D02*
X027332Y001651D01*
X027259Y001493D02*
X027245Y001493D01*
X027232Y001176D02*
X027273Y001176D01*
X027364Y001017D02*
X027141Y001017D01*
X026899Y000859D02*
X027606Y000859D01*
X026606Y000859D02*
X025899Y000859D01*
X026141Y001017D02*
X026364Y001017D01*
X026273Y001176D02*
X026232Y001176D01*
X026245Y001493D02*
X026259Y001493D01*
X026332Y001651D02*
X026173Y001651D01*
X025976Y001810D02*
X026529Y001810D01*
X025529Y001810D02*
X024976Y001810D01*
X025173Y001651D02*
X025332Y001651D01*
X025259Y001493D02*
X025245Y001493D01*
X025232Y001176D02*
X025273Y001176D01*
X025364Y001017D02*
X025141Y001017D01*
X024899Y000859D02*
X025606Y000859D01*
X024606Y000859D02*
X023899Y000859D01*
X024141Y001017D02*
X024364Y001017D01*
X024273Y001176D02*
X024232Y001176D01*
X024245Y001493D02*
X024259Y001493D01*
X024332Y001651D02*
X024173Y001651D01*
X023976Y001810D02*
X024529Y001810D01*
X023529Y001810D02*
X022976Y001810D01*
X022972Y001968D02*
X029370Y001968D01*
X029529Y002127D02*
X022972Y002127D01*
X022972Y002285D02*
X029687Y002285D01*
X029752Y002444D02*
X022970Y002444D01*
X022811Y002602D02*
X028348Y002602D01*
X028325Y002610D02*
X028325Y002610D01*
X028157Y002761D02*
X022653Y002761D01*
X022494Y002919D02*
X028029Y002919D01*
X028061Y002847D02*
X028061Y002847D01*
X027958Y003078D02*
X022336Y003078D01*
X023173Y001651D02*
X023332Y001651D01*
X023259Y001493D02*
X023245Y001493D01*
X023232Y001176D02*
X023273Y001176D01*
X023364Y001017D02*
X023141Y001017D01*
X022899Y000859D02*
X023606Y000859D01*
X028663Y002500D02*
X028663Y002500D01*
X029017Y002537D02*
X029017Y002537D01*
X029129Y002602D02*
X029752Y002602D01*
X029752Y002761D02*
X029358Y002761D01*
X029324Y002715D02*
X029324Y002715D01*
X029324Y002715D01*
X029473Y002919D02*
X029752Y002919D01*
X029752Y003078D02*
X029549Y003078D01*
X029583Y003236D02*
X029752Y003236D01*
X029752Y003395D02*
X029598Y003395D01*
X029567Y003553D02*
X029752Y003553D01*
X029752Y003712D02*
X029523Y003712D01*
X029533Y003698D02*
X029533Y003698D01*
X029408Y003870D02*
X029752Y003870D01*
X029752Y004029D02*
X029250Y004029D01*
X029324Y003985D02*
X029324Y003985D01*
X029324Y003985D01*
X029752Y004187D02*
X028789Y004187D01*
X028663Y004200D02*
X028663Y004200D01*
X021552Y005772D02*
X021512Y005772D01*
X021512Y005931D02*
X021552Y005931D01*
X021552Y006089D02*
X021512Y006089D01*
X021512Y006406D02*
X021552Y006406D01*
X021552Y006565D02*
X021512Y006565D01*
X021512Y006723D02*
X021552Y006723D01*
X013672Y004821D02*
X011833Y004821D01*
X010052Y005772D02*
X010012Y005772D01*
X010012Y005931D02*
X010052Y005931D01*
X010052Y006089D02*
X010012Y006089D01*
X010012Y006406D02*
X010052Y006406D01*
X010052Y006565D02*
X010012Y006565D01*
X010012Y006723D02*
X010052Y006723D01*
X010866Y007516D02*
X008639Y007516D01*
X008731Y007674D02*
X010773Y007674D01*
X010742Y007833D02*
X008762Y007833D01*
X008746Y007991D02*
X010759Y007991D01*
X010831Y008150D02*
X008674Y008150D01*
X008479Y008308D02*
X011025Y008308D01*
X010915Y008467D02*
X008590Y008467D01*
X008711Y008625D02*
X010794Y008625D01*
X010742Y008784D02*
X008762Y008784D01*
X008762Y008942D02*
X010742Y008942D01*
X010804Y009101D02*
X008701Y009101D01*
X008565Y009259D02*
X010940Y009259D01*
X007940Y009259D02*
X006252Y009259D01*
X006252Y009101D02*
X007804Y009101D01*
X007742Y008942D02*
X006252Y008942D01*
X006252Y008784D02*
X007742Y008784D01*
X007794Y008625D02*
X006252Y008625D01*
X006252Y008467D02*
X007915Y008467D01*
X008025Y008308D02*
X006252Y008308D01*
X006252Y008150D02*
X007831Y008150D01*
X007759Y007991D02*
X006252Y007991D01*
X006252Y007833D02*
X007742Y007833D01*
X007773Y007674D02*
X006252Y007674D01*
X006252Y007516D02*
X007866Y007516D01*
X006943Y006089D02*
X006252Y006089D01*
X006252Y005931D02*
X007017Y005931D01*
X007833Y004821D02*
X009672Y004821D01*
X027472Y017818D02*
X028752Y017818D01*
X028752Y017660D02*
X027600Y017660D01*
X027472Y017977D02*
X028752Y017977D01*
X028752Y018135D02*
X027472Y018135D01*
X027472Y018294D02*
X028752Y018294D01*
X028752Y018452D02*
X027472Y018452D01*
X027472Y018611D02*
X028752Y018611D01*
X028752Y018769D02*
X027472Y018769D01*
X027472Y018928D02*
X028752Y018928D01*
X028752Y019086D02*
X027327Y019086D01*
X027169Y019245D02*
X028752Y019245D01*
X028752Y019403D02*
X027010Y019403D01*
D19*
X019752Y015350D03*
M02*
