G75*
%MOIN*%
%OFA0B0*%
%FSLAX24Y24*%
%IPPOS*%
%LPD*%
%AMOC8*
5,1,8,0,0,1.08239X$1,22.5*
%
%ADD10C,0.0000*%
%ADD11C,0.0780*%
%ADD12C,0.1340*%
%ADD13C,0.0640*%
%ADD14C,0.0560*%
%ADD15OC8,0.0560*%
%ADD16R,0.0780X0.0780*%
%ADD17R,0.0690X0.0690*%
%ADD18C,0.0690*%
D10*
X006002Y000100D02*
X006002Y021470D01*
X029994Y021470D01*
X029994Y000100D01*
X006002Y000100D01*
X028102Y003350D02*
X028104Y003400D01*
X028110Y003450D01*
X028120Y003500D01*
X028133Y003548D01*
X028150Y003596D01*
X028171Y003642D01*
X028195Y003686D01*
X028223Y003728D01*
X028254Y003768D01*
X028288Y003805D01*
X028325Y003840D01*
X028364Y003871D01*
X028405Y003900D01*
X028449Y003925D01*
X028495Y003947D01*
X028542Y003965D01*
X028590Y003979D01*
X028639Y003990D01*
X028689Y003997D01*
X028739Y004000D01*
X028790Y003999D01*
X028840Y003994D01*
X028890Y003985D01*
X028938Y003973D01*
X028986Y003956D01*
X029032Y003936D01*
X029077Y003913D01*
X029120Y003886D01*
X029160Y003856D01*
X029198Y003823D01*
X029233Y003787D01*
X029266Y003748D01*
X029295Y003707D01*
X029321Y003664D01*
X029344Y003619D01*
X029363Y003572D01*
X029378Y003524D01*
X029390Y003475D01*
X029398Y003425D01*
X029402Y003375D01*
X029402Y003325D01*
X029398Y003275D01*
X029390Y003225D01*
X029378Y003176D01*
X029363Y003128D01*
X029344Y003081D01*
X029321Y003036D01*
X029295Y002993D01*
X029266Y002952D01*
X029233Y002913D01*
X029198Y002877D01*
X029160Y002844D01*
X029120Y002814D01*
X029077Y002787D01*
X029032Y002764D01*
X028986Y002744D01*
X028938Y002727D01*
X028890Y002715D01*
X028840Y002706D01*
X028790Y002701D01*
X028739Y002700D01*
X028689Y002703D01*
X028639Y002710D01*
X028590Y002721D01*
X028542Y002735D01*
X028495Y002753D01*
X028449Y002775D01*
X028405Y002800D01*
X028364Y002829D01*
X028325Y002860D01*
X028288Y002895D01*
X028254Y002932D01*
X028223Y002972D01*
X028195Y003014D01*
X028171Y003058D01*
X028150Y003104D01*
X028133Y003152D01*
X028120Y003200D01*
X028110Y003250D01*
X028104Y003300D01*
X028102Y003350D01*
X008102Y020350D02*
X008104Y020400D01*
X008110Y020450D01*
X008120Y020500D01*
X008133Y020548D01*
X008150Y020596D01*
X008171Y020642D01*
X008195Y020686D01*
X008223Y020728D01*
X008254Y020768D01*
X008288Y020805D01*
X008325Y020840D01*
X008364Y020871D01*
X008405Y020900D01*
X008449Y020925D01*
X008495Y020947D01*
X008542Y020965D01*
X008590Y020979D01*
X008639Y020990D01*
X008689Y020997D01*
X008739Y021000D01*
X008790Y020999D01*
X008840Y020994D01*
X008890Y020985D01*
X008938Y020973D01*
X008986Y020956D01*
X009032Y020936D01*
X009077Y020913D01*
X009120Y020886D01*
X009160Y020856D01*
X009198Y020823D01*
X009233Y020787D01*
X009266Y020748D01*
X009295Y020707D01*
X009321Y020664D01*
X009344Y020619D01*
X009363Y020572D01*
X009378Y020524D01*
X009390Y020475D01*
X009398Y020425D01*
X009402Y020375D01*
X009402Y020325D01*
X009398Y020275D01*
X009390Y020225D01*
X009378Y020176D01*
X009363Y020128D01*
X009344Y020081D01*
X009321Y020036D01*
X009295Y019993D01*
X009266Y019952D01*
X009233Y019913D01*
X009198Y019877D01*
X009160Y019844D01*
X009120Y019814D01*
X009077Y019787D01*
X009032Y019764D01*
X008986Y019744D01*
X008938Y019727D01*
X008890Y019715D01*
X008840Y019706D01*
X008790Y019701D01*
X008739Y019700D01*
X008689Y019703D01*
X008639Y019710D01*
X008590Y019721D01*
X008542Y019735D01*
X008495Y019753D01*
X008449Y019775D01*
X008405Y019800D01*
X008364Y019829D01*
X008325Y019860D01*
X008288Y019895D01*
X008254Y019932D01*
X008223Y019972D01*
X008195Y020014D01*
X008171Y020058D01*
X008150Y020104D01*
X008133Y020152D01*
X008120Y020200D01*
X008110Y020250D01*
X008104Y020300D01*
X008102Y020350D01*
D11*
X012252Y020350D03*
X013252Y020350D03*
X014252Y020350D03*
X015252Y020350D03*
X016252Y020350D03*
X017252Y020350D03*
X018252Y020350D03*
X019252Y020350D03*
X020752Y020350D03*
X021752Y020350D03*
X022752Y020350D03*
X023752Y020350D03*
X024752Y020350D03*
X025752Y020350D03*
X026752Y020350D03*
X027752Y020350D03*
X021252Y014350D03*
X021252Y013350D03*
X021252Y012350D03*
X017252Y013350D03*
X016252Y013350D03*
X015252Y013350D03*
X011752Y013350D03*
X010752Y013350D03*
X008252Y014600D03*
X008252Y015600D03*
X010752Y016350D03*
X011752Y016350D03*
X015252Y016350D03*
X016252Y016350D03*
X017252Y016350D03*
X017252Y009100D03*
X015752Y009100D03*
X015752Y007850D03*
X017252Y007850D03*
X018252Y007850D03*
X019252Y007850D03*
X020252Y007850D03*
X021252Y007850D03*
X022252Y007850D03*
X023252Y007850D03*
X021532Y006240D03*
X021532Y004460D03*
X018972Y004460D03*
X018032Y004460D03*
X018032Y006240D03*
X018972Y006240D03*
X015472Y006240D03*
X014032Y006240D03*
X012752Y007850D03*
X011752Y007850D03*
X011752Y009100D03*
X012752Y009100D03*
X011472Y006240D03*
X010032Y006240D03*
X008752Y007850D03*
X007252Y007850D03*
X007252Y008850D03*
X007252Y009850D03*
X007252Y010850D03*
X007252Y011850D03*
X008752Y009100D03*
X007472Y006240D03*
X007472Y004460D03*
X007472Y003240D03*
X007472Y001460D03*
X010032Y001460D03*
X011472Y001460D03*
X011472Y003240D03*
X010032Y003240D03*
X010032Y004460D03*
X011472Y004460D03*
X014032Y004460D03*
X015472Y004460D03*
X014032Y003240D03*
X014032Y001460D03*
X015752Y001350D03*
X016752Y001350D03*
X017752Y001350D03*
X018752Y001350D03*
X019752Y001350D03*
X020752Y001350D03*
X022752Y001350D03*
X023752Y001350D03*
X024752Y001350D03*
X025752Y001350D03*
X026752Y001350D03*
X027752Y001350D03*
X027252Y005850D03*
X028252Y005850D03*
X020252Y009100D03*
D12*
X028752Y003350D03*
X008752Y020350D03*
D13*
X008752Y018150D02*
X008752Y017550D01*
X009752Y017550D02*
X009752Y018150D01*
X010752Y018150D02*
X010752Y017550D01*
X011752Y017550D02*
X011752Y018150D01*
X012752Y018150D02*
X012752Y017550D01*
X013752Y017550D02*
X013752Y018150D01*
X014752Y018150D02*
X014752Y017550D01*
X015752Y017550D02*
X015752Y018150D01*
X016752Y018150D02*
X016752Y017550D01*
X017752Y017550D02*
X017752Y018150D01*
X018752Y018150D02*
X018752Y017550D01*
X019752Y017550D02*
X019752Y018150D01*
X020752Y018150D02*
X020752Y017550D01*
X021752Y017550D02*
X021752Y018150D01*
X022752Y018150D02*
X022752Y017550D01*
X007752Y017550D02*
X007752Y018150D01*
D14*
X024992Y015350D02*
X025512Y015350D01*
X025512Y014350D02*
X024992Y014350D01*
X024992Y013350D02*
X025512Y013350D01*
X025512Y012350D02*
X024992Y012350D01*
X024992Y011350D02*
X025512Y011350D01*
X025512Y010350D02*
X024992Y010350D01*
X024992Y009350D02*
X025512Y009350D01*
X025512Y008350D02*
X024992Y008350D01*
X027992Y008350D02*
X028512Y008350D01*
X028512Y009350D02*
X027992Y009350D01*
X027992Y010350D02*
X028512Y010350D01*
X028512Y011350D02*
X027992Y011350D01*
X027992Y012350D02*
X028512Y012350D01*
X028512Y013350D02*
X027992Y013350D01*
X027992Y014350D02*
X028512Y014350D01*
X028512Y015350D02*
X027992Y015350D01*
D15*
X019252Y011850D03*
X019252Y010850D03*
X016252Y010850D03*
X016252Y011850D03*
X013252Y011850D03*
X013252Y010850D03*
X010252Y010850D03*
X010252Y011850D03*
D16*
X008252Y013600D03*
X026252Y005850D03*
D17*
X021252Y009850D03*
X023252Y012350D03*
X023252Y014850D03*
X026252Y017350D03*
D18*
X027252Y017350D03*
X023252Y013850D03*
X023252Y011350D03*
X022252Y009850D03*
M02*
