%
M48
M72
T01C0.0236
T02C0.0276
T03C0.0320
T04C0.0354
T05C0.0400
T06C0.1300
%
T01
X14252Y7100
X19752Y6850
X20752Y6850
X16252Y2850
X17252Y2850
X23252Y4850
X23252Y2850
X19752Y15350
T02
X23252Y14850
X23252Y13850
X23252Y12350
X23252Y11350
X26252Y17350
X27252Y17350
X21252Y9850
X22252Y9850
T03
X25252Y15350
X25252Y14350
X25252Y13350
X25252Y12350
X25252Y11350
X25252Y10350
X25252Y9350
X25252Y8350
X28252Y8350
X28252Y9350
X28252Y10350
X28252Y11350
X28252Y12350
X28252Y13350
X28252Y14350
X28252Y15350
X10252Y11850
X10252Y10850
X19252Y11850
X19252Y10850
X16252Y11850
X16252Y10850
X21252Y14350
X21252Y13350
X21252Y12350
X13252Y11850
X13252Y10850
T04
X17252Y9100
X20252Y9100
X12752Y9100
X15752Y9100
X8752Y9100
X11752Y9100
X11752Y7850
X8752Y7850
X15752Y7850
X12752Y7850
X10752Y13350
X10752Y16350
X11752Y16350
X11752Y13350
X17252Y13350
X17252Y16350
X16252Y13350
X16252Y16350
X15252Y13350
X15252Y16350
T05
X15752Y1350
X16752Y1350
X17752Y1350
X18752Y1350
X19752Y1350
X20752Y1350
X22752Y1350
X23752Y1350
X24752Y1350
X25752Y1350
X26752Y1350
X27752Y1350
X27752Y20350
X26752Y20350
X25752Y20350
X24752Y20350
X23752Y20350
X22752Y20350
X21752Y20350
X20752Y20350
X19252Y20350
X18252Y20350
X17252Y20350
X16252Y20350
X15252Y20350
X14252Y20350
X13252Y20350
X12252Y20350
X7752Y17850
X8752Y17850
X9752Y17850
X10752Y17850
X11752Y17850
X12752Y17850
X13752Y17850
X14752Y17850
X15752Y17850
X16752Y17850
X17752Y17850
X18752Y17850
X19752Y17850
X20752Y17850
X21752Y17850
X22752Y17850
X7472Y6240
X10032Y6240
X7472Y4460
X10032Y4460
X7472Y3240
X10032Y3240
X7472Y1460
X10032Y1460
X11472Y6240
X14032Y6240
X11472Y4460
X14032Y4460
X18972Y6240
X21532Y6240
X18972Y4460
X21532Y4460
X11472Y3240
X14032Y3240
X11472Y1460
X14032Y1460
X8252Y13600
X8252Y14600
X8252Y15600
X26252Y5850
X27252Y5850
X28252Y5850
X15472Y6240
X18032Y6240
X15472Y4460
X18032Y4460
X17252Y7850
X18252Y7850
X19252Y7850
X20252Y7850
X21252Y7850
X22252Y7850
X23252Y7850
X7252Y11850
X7252Y10850
X7252Y9850
X7252Y8850
X7252Y7850
T06
X28752Y3350
X8752Y20350
M30
