%
M48
M72
T01C0.0236
T02C0.0276
T03C0.0320
T04C0.0354
T05C0.0400
T06C0.1300
%
T01
X17000Y22250
X22500Y22000
X23500Y22000
X19000Y18000
X20000Y18000
X26000Y20000
X26000Y18000
X22500Y30500
T02
X26000Y30000
X26000Y29000
X26000Y27500
X26000Y26500
X29000Y32500
X30000Y32500
X24000Y25000
X25000Y25000
T03
X28000Y30500
X28000Y29500
X28000Y28500
X28000Y27500
X28000Y26500
X28000Y25500
X28000Y24500
X28000Y23500
X31000Y23500
X31000Y24500
X31000Y25500
X31000Y26500
X31000Y27500
X31000Y28500
X31000Y29500
X31000Y30500
X13000Y27000
X13000Y26000
X22000Y27000
X22000Y26000
X19000Y27000
X19000Y26000
X24000Y29500
X24000Y28500
X24000Y27500
X16000Y27000
X16000Y26000
T04
X20000Y24250
X23000Y24250
X15500Y24250
X18500Y24250
X11500Y24250
X14500Y24250
X14500Y23000
X11500Y23000
X18500Y23000
X15500Y23000
X13500Y28500
X13500Y31500
X14500Y31500
X14500Y28500
X20000Y28500
X20000Y31500
X19000Y28500
X19000Y31500
X18000Y28500
X18000Y31500
T05
X18500Y16500
X19500Y16500
X20500Y16500
X21500Y16500
X22500Y16500
X23500Y16500
X25500Y16500
X26500Y16500
X27500Y16500
X28500Y16500
X29500Y16500
X30500Y16500
X30500Y35500
X29500Y35500
X28500Y35500
X27500Y35500
X26500Y35500
X25500Y35500
X24500Y35500
X23500Y35500
X22000Y35500
X21000Y35500
X20000Y35500
X19000Y35500
X18000Y35500
X17000Y35500
X16000Y35500
X15000Y35500
X10500Y33000
X11500Y33000
X12500Y33000
X13500Y33000
X14500Y33000
X15500Y33000
X16500Y33000
X17500Y33000
X18500Y33000
X19500Y33000
X20500Y33000
X21500Y33000
X22500Y33000
X23500Y33000
X24500Y33000
X25500Y33000
X10220Y21390
X12780Y21390
X10220Y19610
X12780Y19610
X10220Y18390
X12780Y18390
X10220Y16610
X12780Y16610
X14220Y21390
X16780Y21390
X14220Y19610
X16780Y19610
X21720Y21390
X24280Y21390
X21720Y19610
X24280Y19610
X14220Y18390
X16780Y18390
X14220Y16610
X16780Y16610
X11000Y28750
X11000Y29750
X11000Y30750
X29000Y21000
X30000Y21000
X31000Y21000
X18220Y21390
X20780Y21390
X18220Y19610
X20780Y19610
X20000Y23000
X21000Y23000
X22000Y23000
X23000Y23000
X24000Y23000
X25000Y23000
X26000Y23000
X10000Y27000
X10000Y26000
X10000Y25000
X10000Y24000
X10000Y23000
T06
X31500Y18500
X11500Y35500
M30
